<svg width="24" height="24" viewBox="0 0 24 24" fill="none" xmlns="http://www.w3.org/2000/svg">
<g clip-path="url(#clip0_46_459)">
<path fill-rule="evenodd" clip-rule="evenodd" d="M11.25 21.75V13.875H8.625V11.25H11.25V8.625C11.25 6.96938 12.5948 5.625 14.25 5.625H17.625V8.25H15.75C14.9224 8.25 14.25 8.922 14.25 9.75L14.2035 11.25H17.625L17.25 13.875H14.25V21.75H18.375C20.2376 21.75 21.75 20.238 21.75 18.375V5.625C21.75 3.76237 20.2376 2.25 18.375 2.25H5.625C3.762 2.25 2.25 3.76237 2.25 5.625V18.375C2.25 20.238 3.762 21.75 5.625 21.75H11.25Z" fill="#3C3C3C"/>
</g>
<defs>
<clipPath id="clip0_46_459">
<rect width="24" height="24" fill="white"/>
</clipPath>
</defs>
</svg>
