<svg width="24" height="24" viewBox="0 0 24 24" fill="none" xmlns="http://www.w3.org/2000/svg">
<g clip-path="url(#clip0_46_455)">
<path fill-rule="evenodd" clip-rule="evenodd" d="M21.75 7.125C21.75 4.43437 19.566 2.25 16.875 2.25H7.125C4.43437 2.25 2.25 4.43437 2.25 7.125V16.875C2.25 19.566 4.43437 21.75 7.125 21.75H16.875C19.566 21.75 21.75 19.566 21.75 16.875V7.125ZM19.125 7.5C19.125 6.05137 17.949 4.875 16.5 4.875H7.5C6.05137 4.875 4.875 6.05137 4.875 7.5V16.5C4.875 17.949 6.05137 19.125 7.5 19.125H16.5C17.949 19.125 19.125 17.949 19.125 16.5V7.5ZM18.375 7.5V16.5C18.375 17.535 17.535 18.375 16.5 18.375H7.5C6.465 18.375 5.625 17.535 5.625 16.5V7.5C5.625 6.465 6.465 5.625 7.5 5.625H16.5C17.535 5.625 18.375 6.465 18.375 7.5ZM12 9C13.656 9 15 10.3444 15 12C15 13.656 13.656 15 12 15C10.3444 15 9 13.656 9 12C9 10.3444 10.3444 9 12 9ZM16.125 7.125C16.324 7.125 16.5149 7.20406 16.6556 7.34478C16.7963 7.4855 16.8754 7.67636 16.8754 7.87537C16.8754 8.07439 16.7963 8.26525 16.6556 8.40597C16.5149 8.54669 16.324 8.62575 16.125 8.62575C15.926 8.62575 15.7351 8.54669 15.5944 8.40597C15.4537 8.26525 15.3746 8.07439 15.3746 7.87537C15.3746 7.67636 15.4537 7.4855 15.5944 7.34478C15.7351 7.20406 15.926 7.125 16.125 7.125Z" fill="#3C3C3C"/>
</g>
<defs>
<clipPath id="clip0_46_455">
<rect width="24" height="24" fill="white"/>
</clipPath>
</defs>
</svg>
