<svg width="24" height="24" viewBox="0 0 24 24" fill="none" xmlns="http://www.w3.org/2000/svg">
<g clip-path="url(#clip0_46_463)">
<path fill-rule="evenodd" clip-rule="evenodd" d="M12.375 2.25037C12.2755 2.25037 12.1802 2.28988 12.1098 2.3602C12.0395 2.43053 12 2.52591 12 2.62537V16.1254C12 17.1604 11.16 18.0004 10.125 18.0004C9.09 18.0004 8.25 17.1604 8.25 16.1254C8.25 15.0904 9.09 14.2504 10.125 14.2504C10.2245 14.2504 10.3198 14.2109 10.3902 14.1405C10.4605 14.0702 10.5 13.9748 10.5 13.8754V10.8754C10.5 10.7759 10.4605 10.6805 10.3902 10.6102C10.3198 10.5399 10.2245 10.5004 10.125 10.5004C7.02 10.5004 4.5 13.0207 4.5 16.1254C4.5 19.2304 7.02 21.7504 10.125 21.7504C13.2296 21.7504 15.75 19.2304 15.75 16.1254V9.18562C16.5747 9.55889 17.4697 9.75145 18.375 9.75037H19.125C19.2245 9.75037 19.3198 9.71086 19.3902 9.64053C19.4605 9.57021 19.5 9.47482 19.5 9.37537V6.37537C19.5 6.27591 19.4605 6.18053 19.3902 6.1102C19.3198 6.03988 19.2245 6.00037 19.125 6.00037H18.375C16.9264 6.00037 15.75 4.82399 15.75 3.37537V2.62537C15.75 2.52591 15.7105 2.43053 15.6402 2.3602C15.5698 2.28988 15.4745 2.25037 15.375 2.25037H12.375Z" fill="#3C3C3C"/>
</g>
<defs>
<clipPath id="clip0_46_463">
<rect width="24" height="24" fill="white"/>
</clipPath>
</defs>
</svg>
