<svg width="24" height="24" viewBox="0 0 24 24" fill="none" xmlns="http://www.w3.org/2000/svg">
<g clip-path="url(#clip0_46_467)">
<path fill-rule="evenodd" clip-rule="evenodd" d="M3.66749 17.0625L2.26949 21.2569C2.24761 21.3229 2.24452 21.3938 2.26057 21.4615C2.27662 21.5292 2.31118 21.5911 2.36039 21.6404C2.4096 21.6896 2.47152 21.7241 2.53924 21.7402C2.60696 21.7562 2.6778 21.7531 2.74387 21.7313L6.93824 20.3325C8.46292 21.2621 10.2147 21.7526 12.0004 21.75C17.3816 21.75 21.7504 17.3813 21.7504 12C21.7504 6.61875 17.3816 2.25 12.0004 2.25C6.61912 2.25 2.25037 6.61875 2.25037 12C2.25037 13.8536 2.76862 15.5869 3.66749 17.0625ZM14.244 13.4689L12.9184 14.7949C12.5085 15.2044 11.4454 14.9126 10.2667 13.7336C9.08812 12.5554 8.79637 11.4919 9.20587 11.0824L10.5319 9.75638L9.81374 8.08013C9.71715 7.85484 9.56682 7.65665 9.37591 7.50291C9.18499 7.34917 8.95931 7.24456 8.71861 7.19824C8.4779 7.15191 8.22952 7.16528 7.99517 7.23717C7.76083 7.30906 7.54768 7.43729 7.37437 7.61063L6.71362 8.27138C5.30849 9.67613 6.18787 12.837 8.67562 15.3251C11.1637 17.8129 14.3242 18.6923 15.7294 17.2871L16.3897 16.6264C16.5633 16.4531 16.6916 16.24 16.7636 16.0056C16.8356 15.7712 16.849 15.5228 16.8027 15.282C16.7564 15.0413 16.6517 14.8155 16.4978 14.6246C16.344 14.4337 16.1457 14.2835 15.9202 14.187L14.244 13.4689Z" fill="#3C3C3C"/>
</g>
<defs>
<clipPath id="clip0_46_467">
<rect width="24" height="24" fill="white"/>
</clipPath>
</defs>
</svg>
