<svg xmlns="http://www.w3.org/2000/svg" viewBox="0 0 1024.00 1024.00" data-guides="{&quot;vertical&quot;:[],&quot;horizontal&quot;:[]}"><path fill="#000000" stroke="none" fill-opacity="1" stroke-width="1" stroke-opacity="1" alignment-baseline="baseline" baseline-shift="baseline" id="tSvg5ad56596bc" title="Path 1" d="M886.3387 404.9227C889.5244 423.6917 891.51 442.1169 892.5872 460.728C893.4671 475.9296 893.19 491.0601 892.134 506.1252C889.6494 541.5732 882.4445 576.1183 870.4691 609.6596C853.8076 656.3263 828.9664 698.2557 796.8178 735.7522C759.6547 779.0974 714.9609 812.6858 662.9708 836.5272C631.0027 851.187 597.6464 861.1121 562.8902 866.0632C537.9637 869.6139 512.8917 870.0938 487.6972 868.5811C429.9655 865.115 376.331 848.3203 326.3655 819.6779C251.4435 776.7294 196.3712 715.6573 161.0004 636.847C147.0381 605.7372 137.5239 573.2773 131.9182 539.6903C127.3804 512.502 126.4713 485.0135 127.872 457.5807C130.8999 398.2766 146.3096 342.2372 174.5172 289.8719C192.4902 256.506 214.9418 226.4431 241.8884 199.7724C278.5593 163.4769 320.614 135.2286 368.4047 115.6987C393.421 105.4757 419.4454 98.888 446.1164 94.5311C470.3397 90.5739 494.6725 89.12 519.1608 89.6633C576.4142 90.9335 630.8876 103.9641 681.8549 130.048C759.0107 169.5343 816.538 228.629 854.3766 306.6123C868.9537 336.6548 879.249 368.2415 885.4724 401.1018C885.6885 402.2432 886.0253 403.3617 886.3387 404.9227ZM864.0432 547.7429C867.6259 530.6441 869.6415 513.3035 870.5146 495.9118C871.7264 471.7724 870.1249 447.6697 866.4564 423.7848C860.5391 385.2583 849.4694 348.234 832.1724 313.2462C804.5104 257.2923 764.9222 211.5531 713.5287 176.0772C657.1429 137.1552 594.3793 117.0072 526.2578 113.5345C493.4154 111.8602 460.7993 114.9167 428.6544 122.2577C346.4782 141.0245 278.5494 183.0082 227.6359 250.0811C172.3084 322.9689 146.0557 405.7653 150.2114 497.7189C151.1595 518.6979 154.0061 539.3729 158.7803 559.7533C178.707 644.8173 222.3777 715.168 291.0206 769.3351C349.1203 815.1826 415.3036 841.4711 489.3556 846.4451C516.5992 848.275 543.8267 846.7382 570.8642 841.8586C636.9954 829.9236 694.4999 800.4822 744.9591 756.7429C780.2372 726.163 808.1479 689.688 829.5209 648.2185C845.7784 616.6744 857.308 583.4777 864.0432 547.7429Z"/><path fill="#000000" stroke="none" fill-opacity="1" stroke-width="1" stroke-opacity="1" alignment-baseline="baseline" baseline-shift="baseline" id="tSvg8981767678" title="Path 2" d="M531.4628 255.7501C543.1346 255.5459 546.5582 257.7025 550.2849 267.821C551.0414 269.8751 552.3985 270.833 554.1382 271.3088C568.1573 275.1421 581.6272 280.3598 594.5405 287.0263C594.9542 287.2399 595.486 287.2246 596.2205 287.3654C597.7356 285.248 599.1352 282.9931 600.824 280.9808C611.6509 268.0797 625.1893 263.1503 642.0915 265.3867C669.5797 269.0238 686.274 284.8472 694.3525 310.3401C700.6093 330.0844 693.3618 351.6822 677.0887 364.4593C674.4445 366.5354 673.4763 367.9695 675.0786 371.3219C682.5187 386.887 687.474 403.3225 689.0283 420.4672C692.1502 454.905 685.8683 486.7677 661.2436 512.9978C659.8945 514.435 658.6543 515.9744 656.952 517.9417C664.1266 524.1129 670.1764 530.936 675.3884 538.4353C688.0995 556.7242 695.1417 576.7513 696.6218 599.2604C698.7713 631.9467 678.2218 672.0057 642.9348 683.9084C631.2602 687.8465 619.2968 689.4165 607.0925 686.7658C604.0163 686.0977 602.8073 687.0823 602.3135 689.9957C600.7326 699.3232 598.3261 708.5732 597.5676 717.9606C596.7634 727.9138 591.5008 734.1796 583.6796 739.0134C574.005 744.9929 563.0834 747.467 552.0634 749.197C536.2703 751.6763 520.3361 753.0264 504.3361 752.2805C484.015 751.3331 463.9735 748.9604 444.9533 740.8215C433.8125 736.054 427.5273 728.7308 426.4746 716.1767C425.5381 705.0088 423.8239 693.8177 421.2041 682.705C420.331 682.705 419.622 682.5154 419.0732 682.732C375.5662 699.8965 331.3672 669.6645 322.7112 626.569C316.1252 593.7794 324.1179 564.6769 344.4073 538.5132C349.3376 532.1556 354.8956 526.4222 360.9548 521.22C364.115 518.5068 363.7103 516.9006 361.1016 514.0745C344.4008 495.9823 335.4615 474.48 332.5272 450.0702C329.348 423.6233 334.8232 398.8528 345.2379 374.8143C348.265 367.8275 348.1351 368.0246 342.3366 363.4366C327.7189 351.8709 321.7656 336.6245 323.5815 318.1656C325.6662 296.9735 336.2712 281.2014 354.6938 271.0949C367.8605 263.8718 382.3534 262.7988 396.8939 266.0827C407.2202 268.4148 415.1443 274.7058 420.9876 283.5472C421.9814 285.051 422.9517 286.5703 424.0409 288.249C430.9838 285.1168 437.5186 281.8668 444.2763 279.1772C464.2697 271.2197 485.0485 267.1413 506.6032 267.7323C511.518 267.867 515.4147 266.4011 518.6667 262.9741C522.1036 259.3522 526.287 257.1187 531.4628 255.7501ZM633.5545 335.9296C611.4638 311.9712 584.7363 295.4841 553.5651 286.0553C549.5471 284.8399 546.6768 284.7977 543.5764 288.4461C538.8221 294.0408 534.0898 294.7608 528.2094 292.1396C528.0123 290.8485 529.0201 290.3487 529.8682 289.9525C534.5237 287.7772 536.5861 283.5747 538.0931 279.1216C539.1146 276.1033 539.6436 272.634 536.59 270.4105C533.603 268.2356 531.3117 270.8642 529.0619 272.413C526.7314 274.0174 524.558 275.8479 522.2811 277.5324C518.6973 280.1839 514.7175 281.8051 510.1991 281.5234C502.4979 281.0435 494.9248 282.0941 487.3533 283.2156C441.1916 290.0533 404.1188 312.3127 376.7775 349.97C355.3508 379.4811 342.9716 412.1415 347.3323 449.4354C351.8196 487.8111 373.5556 513.1236 408.0515 528.5436C408.9162 528.9302 409.9361 528.9694 410.9271 529.1797C411.4036 528.4515 411.856 527.9432 412.1069 527.3497C417.1792 515.3511 419.6822 513.6823 432.6932 513.6799C448.5265 513.6771 464.3598 513.6967 480.1929 513.6452C482.3938 513.638 484.9882 514.3177 485.7557 510.9389C487.8405 501.7606 489.6953 492.5493 491.06 482.4651C486.9982 483.8424 483.5591 482.8755 480.1861 482.2607C469.1885 480.2558 460.7789 474.5833 456.3448 463.9684C455.2252 461.2883 454.8743 458.3324 457.1785 456.0224C459.2937 453.9018 462.0099 453.9065 464.6338 455.0276C466.5501 455.8465 467.6502 457.5929 468.6536 459.3458C470.5992 462.7446 473.1252 465.5919 476.661 467.3689C483.7766 470.9448 490.8964 470.5641 497.6302 466.5803C502.3697 463.7764 503.781 459.0682 503.7034 453.7063C503.6617 450.8219 502.7866 449.0531 499.8842 448.1315C495.7173 446.8082 492.0228 444.4581 488.6894 441.6737C480.8837 435.1536 481.574 422.8771 489.9865 417.2398C494.5006 414.2149 499.2933 412.2435 504.943 412.5592C508.9181 412.7813 512.927 412.3929 516.9209 412.2817C523.7452 412.0918 529.7195 414.2475 534.626 419.005C540.8575 425.0474 540.5452 435.5841 533.9384 441.2154C530.6384 444.0283 526.9935 446.3994 522.9796 448.1179C517.1984 450.593 516.3166 452.3901 517.7563 458.4443C518.8926 463.2228 521.8346 466.3656 526.2782 468.1755C536.6081 472.3829 546.7283 468.8687 552.3577 459.1685C554.7588 455.0312 558.5095 453.2651 561.8214 455.1572C565.6927 457.3689 565.9041 460.8234 564.335 464.6998C561.3486 472.0776 555.982 477.1042 548.7886 480.0968C542.5612 482.6875 536.0268 483.4943 529.2442 482.5998C526.6495 482.2576 522.8597 481.0213 521.945 484.8069C519.7368 493.9458 517.9576 503.2031 517.1806 512.598C519.7504 514.0269 522.1198 513.659 524.398 513.6622C544.8979 513.6915 565.406 514.0237 585.8943 513.5381C596.5012 513.2868 604.1179 516.3679 607.5966 526.9571C608.366 529.2992 609.8456 530.0099 612.2296 528.8719C615.9813 527.0812 619.9457 525.7025 623.5897 523.7248C664.1602 501.706 679.6951 460.7169 673.3585 419.1695C668.5777 387.8228 654.962 360.3085 633.5545 335.9296ZM585.0137 703.8103C586.5037 695.6563 587.9821 687.5002 589.4924 679.35C589.8261 677.549 589.1681 676.131 588.1094 674.7444C582.6384 667.579 580.1605 659.4488 580.694 650.477C580.9444 646.2651 579.7443 644.8394 575.2455 645.8276C554.7366 650.3331 534.9781 647.587 515.8875 639.0964C502.9693 633.351 490.0491 627.5502 476.071 624.7816C463.7805 622.3472 451.6365 622.7096 439.7503 627.1426C435.6991 628.6536 434.2229 630.5151 435.8654 635.2698C439.5034 645.8004 439.7442 656.4778 434.3186 666.7146C433.5052 668.2491 433.4803 669.7706 433.7805 671.5212C436.0787 684.9238 438.5702 698.3072 440.3129 711.7856C441.3325 719.6713 443.7726 725.5152 451.9331 728.4587C467.5256 734.083 483.4963 737.7924 500.0135 738.5476C514.3036 739.2009 528.6353 738.9064 542.8123 736.581C554.3107 734.695 565.7478 732.49 576.082 726.6505C579.0518 724.9723 581.7847 723.0128 582.442 719.3944C583.3308 714.5005 584.0316 709.5724 585.0137 703.8103ZM440.4999 579.6521C496.3136 579.6507 552.1272 579.6497 607.9409 579.6475C619.6664 579.647 619.6664 579.6448 619.7088 567.7031C619.7321 561.1583 619.7321 561.1456 613.0728 561.1467C576.0859 561.1531 539.0986 561.2726 502.1122 561.1445C470.4633 561.0349 438.8155 560.6235 407.1668 560.3943C400.6939 560.3475 400.3657 560.7691 400.3479 567.1486C400.3404 569.8143 400.5149 572.4927 400.3113 575.1426C400.0367 578.7177 401.6273 579.7353 405.0128 579.6942C416.507 579.5544 428.004 579.6474 440.4999 579.6521ZM496.5 529.1885C475.1868 529.1733 453.8736 529.1404 432.5605 529.1696C430.3439 529.1727 427.5292 528.3428 426.4528 531.2286C424.6164 536.1518 422.5297 541.0487 422.1869 546.2978C423.7394 547.5342 425.2212 547.6459 426.7215 547.6324C435.0489 547.5579 443.3689 548.5141 451.6547 548.4862C497.101 548.3336 542.5566 549.5839 587.9944 547.8058C599.6122 547.3512 599.4164 547.4434 596.2629 536.1474C594.8431 531.062 592.5594 528.95 586.9141 529.0084C557.1119 529.3168 527.3052 529.1768 496.5 529.1885ZM511.711 593.238C507.1221 592.3182 505.0401 594.418 504.4936 598.8676C503.847 604.1313 503.1377 609.41 502.0005 614.5821C501.3706 617.4464 502.4586 618.4464 504.8002 619.3381C510.8635 621.6473 516.9248 623.9795 522.8808 626.5485C536.8683 632.5816 551.5742 633.5964 566.4516 632.5074C575.0868 631.8752 583.5021 629.7307 591.0881 625.1716C592.8347 624.122 594.5964 623.0543 594.9774 620.8804C596.5396 611.9679 598.0275 603.0424 599.6925 593.2404C570.1761 593.2404 541.4182 593.2404 511.711 593.238ZM440.5012 593.1725C434.7395 593.1725 428.9779 593.1725 422.9054 593.1725C423.6349 601.5347 425.1747 608.8842 427.2819 616.598C431.9991 614.9944 435.8726 612.7131 440.2137 611.6051C449.5383 609.2247 458.9936 609.5051 468.4616 609.6658C471.0616 609.71 473.8362 609.7235 474.3634 606.4937C475.0436 602.3256 476.3698 598.2014 476.03 593.1738C464.3795 593.1738 452.9401 593.1738 440.5012 593.1725ZM390.5799 614.0938C396.7591 620.8263 404.222 625.3182 413.0654 627.4086C405.729 620.235 395.1035 618.0141 387.981 610.3994C388.6993 611.468 389.4176 612.5366 390.5799 614.0938ZM616.7657 621.3282C614.5339 622.7281 611.8987 623.612 610.4973 626.0871C618.4496 623.7055 625.2979 619.8062 629.8086 612.6462C625.9642 615.8511 621.6288 618.3392 616.7657 621.3282Z"/><path fill="#000000" stroke="none" fill-opacity="1" stroke-width="1" stroke-opacity="1" alignment-baseline="baseline" baseline-shift="baseline" id="tSvg38bd068b55" title="Path 3" d="M460.2952 145.9556C464.8657 136.6251 476.4731 134.5882 483.9244 141.859C492.0366 149.7748 498.5085 159.1446 505.741 167.8423C509.6545 172.5486 513.4946 177.3159 517.9422 182.7587C519.0495 178.6318 518.5919 175.3435 518.626 172.1248C518.7075 164.4647 518.6151 156.8028 518.6791 149.1423C518.7455 141.188 522.6711 136.825 529.7663 136.6633C538.4346 136.4658 543.1002 140.5511 543.285 149.013C543.4922 158.5015 543.3461 167.9978 543.3484 177.4907C543.3511 188.9822 543.2661 200.4744 543.3832 211.9647C543.4391 217.45 542.5508 222.3393 537.0296 224.9525C531.3886 227.6224 523.9613 226.5424 519.4652 221.7507C514.3509 216.3001 509.7599 210.3553 504.993 204.5827C498.776 197.0538 492.6097 189.4831 485.7287 181.0847C485.2176 187.6964 485.541 193.0444 486.0639 198.4795C486.6516 204.5883 486.4778 210.7968 486.2623 216.9489C486.0529 222.9245 481.9062 226.4409 474.8279 227.2305C468.8241 227.9003 464.1814 225.0049 462.5047 219.5022C462.1679 218.3967 461.7798 217.254 461.7426 216.1178C461.0183 194.0094 460.3342 171.8996 459.6819 149.789C459.6482 148.6467 459.9725 147.4939 460.2952 145.9556Z"/><path fill="#000000" stroke="none" fill-opacity="1" stroke-width="1" stroke-opacity="1" alignment-baseline="baseline" baseline-shift="baseline" id="tSvgcdbe5eafb9" title="Path 4" d="M560.2594 223.0823C559.2996 219.71 559.6991 216.8169 560.6004 213.886C566.6526 194.2071 572.7901 174.5523 578.5779 154.7954C580.5408 148.0953 586.3923 143.129 594.5066 145.4997C605.0425 148.5779 615.6415 151.4906 625.5858 156.1244C653.6286 169.1915 658.8163 205.1131 635.8528 226.5662C624.4299 237.2379 611.0653 241.7056 595.4898 238.4059C586.5563 236.5134 577.7213 234.2429 569.1312 231.1218C565.2723 229.7197 561.9767 227.5515 560.2594 223.0823ZM598.8246 216.5169C608.2562 218.5333 616.1725 215.4891 621.3975 207.8367C626.923 199.7442 627.1534 190.4655 621.9067 182.5787C617.7612 176.3475 610.7377 175.2728 604.3989 172.9323C600.8594 171.6254 599.2856 172.8451 598.2673 176.2862C595.7242 184.8798 592.8922 193.3876 590.198 201.9367C586.6171 213.3001 586.626 213.303 598.8246 216.5169Z"/><path fill="#000000" stroke="none" fill-opacity="1" stroke-width="1" stroke-opacity="1" alignment-baseline="baseline" baseline-shift="baseline" id="tSvg173102dc1dd" title="Path 5" d="M389.3682 251.5937C387.8238 252.3295 386.6344 252.9385 385.3818 253.3595C377.4135 256.0374 371.0073 252.0356 370.7417 243.718C369.9882 220.1104 369.272 196.4984 369.6228 172.87C369.6767 169.2394 371.1713 166.4757 373.8204 164.2238C381.4398 157.7466 393.4806 158.1405 400.4011 165.2047C416.2455 181.3781 430.707 198.8074 445.9126 215.562C450.801 220.9485 450.88 228.6219 446.0857 232.0433C439.5086 236.737 432.0572 238.5438 426.5676 231.8169C420.4568 224.3287 420.1819 224.5452 411.1927 227.7314C409.1571 228.453 407.1924 229.4364 405.1089 229.9498C397.6559 231.7862 392.3973 234.9465 394.1666 244.1355C394.7529 247.1805 392.4626 249.7374 389.3682 251.5937ZM391.4155 192.6299C391.7369 197.4076 392.0595 202.1852 392.3791 206.963C392.5306 209.2273 393.4067 211.1995 395.9772 210.4431C399.3803 209.4418 403.0193 208.8039 406.3551 206.2144C401.7677 201.1731 397.3699 196.3044 392.9135 191.4899C392.3825 190.9162 391.7215 191.1659 391.4155 192.6299Z"/><path fill="#000000" stroke="none" fill-opacity="1" stroke-width="1" stroke-opacity="1" alignment-baseline="baseline" baseline-shift="baseline" id="tSvg685d0281fe" title="Path 6" d="M687.6577 278.8825C687.6573 278.1219 687.5505 277.7385 687.6776 277.463C691.1826 269.8632 686.3769 266.0829 680.9796 262.337C676.3406 259.1174 671.9601 255.5252 667.1884 251.8867C664.7502 253.6166 662.4122 255.4174 659.9365 257.0032C654.203 260.6759 646.9976 258.6688 642.7105 252.3043C639.4594 247.4776 640.8286 241.4965 646.5549 237.6762C664.1362 225.9469 681.8911 214.4774 699.4517 202.7173C706.3143 198.1215 712.6982 199.0886 718.8619 203.5925C724.9076 208.0101 727.31 213.9962 725.5754 221.4998C720.6794 242.6795 715.8038 263.8641 711.0215 285.0696C709.8957 290.0614 706.8065 292.8771 702.0771 294.0706C697.585 295.2043 695.3992 291.8359 693.1852 288.9857C690.9023 286.0468 687.345 283.7562 687.6577 278.8825ZM700.1337 229.3698C694.1893 230.9124 690.0872 235.0582 685.5376 239.0417C688.8123 242.3125 691.7201 245.0924 695.6854 247.3336C698.0092 241.3903 699.8077 235.7952 700.1337 229.3698Z"/><path fill="#000000" stroke="none" fill-opacity="1" stroke-width="1" stroke-opacity="1" alignment-baseline="baseline" baseline-shift="baseline" id="tSvg569aca9321" title="Path 7" d="M312.7437 193.0381C326.0224 186.5481 338.2512 187.5867 348.7761 197.4751C358.5881 206.6937 362.3304 218.293 358.5529 231.5637C356.2581 239.6255 349.7238 244.6365 343.9045 250.0674C343.113 250.8061 342.1851 251.3973 341.3333 252.0731C333.3066 258.4412 333.3027 258.4454 338.9528 266.7023C340.0968 268.3741 344.132 271.3119 342.1205 273.251C340.109 275.1901 331.059 282.3221 327.7333 287.942C324.7766 287.9193 323.6544 285.8049 322.2598 284.2804C308.297 269.0164 295.5559 252.7667 283.5159 235.9606C282.3582 234.3446 281.3288 232.6238 280.3729 230.8788C276.5235 223.8524 277.2001 218.5843 283.5621 213.6185C292.8358 206.3799 302.0887 199.0581 312.7437 193.0381ZM321.315 216.4661C317.2352 218.1267 314.2162 221.3452 310.6464 223.7555C309.1853 224.7419 308.6385 225.9512 309.5907 227.8862C315.713 240.3274 322.6097 241.3457 331.3118 230.9429C334.1935 227.498 335.5827 223.56 332.9646 219.5411C330.4388 215.6641 326.5917 214.4672 321.315 216.4661Z" style=""/><path fill="#000000" stroke="none" fill-opacity="1" stroke-width="1" stroke-opacity="1" alignment-baseline="baseline" baseline-shift="baseline" id="tSvg1839338e131" title="Path 8" d="M306.4241 654.6177C308.4171 657.3029 310.3939 659.5916 311.9217 662.1485C318.1949 672.6475 314.6125 687.0984 304.5584 693.2615C300.7565 695.5919 296.6167 695.1995 292.2153 695.5002C292.264 704.2267 288.1516 710.4386 281.1002 714.9421C272.9388 720.1546 263.532 719.7256 256.3012 713.1473C249.0332 706.5354 242.4176 699.2517 236.9884 691.0102C233.1834 685.2343 233.6395 680.3649 238.9358 675.9699C252.6318 664.6047 266.4562 653.389 280.4135 642.3463C286.062 637.8773 291.4296 638.5036 296.4563 643.6467C299.8258 647.0943 302.9614 650.7706 306.4241 654.6177ZM264.9553 697.5759C268.0177 700.3387 270.8038 699.8701 273.6234 697.0681C275.9346 694.7714 276.4539 692.0374 275.2148 689.3371C273.3551 685.2847 270.8761 681.537 266.9398 679.1099C266.584 678.8906 265.6256 679.2956 265.156 679.6717C262.3505 681.9185 259.1558 683.7244 256.7322 686.7366C259.0347 690.5007 261.2448 694.1487 264.9553 697.5759ZM295.6179 669.8239C293.4253 666.5538 291.1066 663.3981 287.7075 660.7861C285.3507 662.905 283.1371 664.8636 280.9631 666.8654C280.106 667.6545 279.1357 668.584 279.9814 669.8419C282.4212 673.4706 285.222 676.834 289.8372 677.5505C293.9916 678.1955 296.5743 675.0051 295.6179 669.8239Z"/><path fill="#000000" stroke="none" fill-opacity="1" stroke-width="1" stroke-opacity="1" alignment-baseline="baseline" baseline-shift="baseline" id="tSvg12b84369587" title="Path 9" d="M407.9759 793.4542C401.0393 805.9549 390.6067 809.6946 377.918 804.2449C370.4367 801.0316 363.0092 797.6296 356.0836 793.3057C350.1083 789.575 348.8682 785.1935 351.944 778.8218C359.608 762.9455 367.3414 747.1023 375.1152 731.2793C378.2812 724.8353 381.5071 723.3477 387.9956 725.9196C396.0312 729.1048 403.7216 733.0436 411.1612 737.5027C425.0494 745.8271 425.746 767.0906 408.9446 773.7354C408.216 774.0235 407.5863 774.5614 406.6858 775.1232C409.6308 781.0226 410.3393 786.965 407.9759 793.4542ZM392.6002 782.3974C390.9596 773.8956 383.3106 774.2499 377.6729 771.6343C371.8142 780.3775 371.6366 782.1719 376.1274 784.723C385.9129 790.2819 389.4169 789.9408 392.6002 782.3974ZM395.9959 749.5441C393.6957 748.7271 391.7021 747.0123 389.1061 747.1161C382.5191 757.3527 383.5085 757.3494 394.5348 761.3815C395.5484 761.7523 396.8701 761.6572 397.9534 761.3906C401.2309 760.584 403.1743 756.8889 401.936 754.1323C400.8918 751.808 398.6893 750.9474 395.9959 749.5441Z"/><path fill="#000000" stroke="none" fill-opacity="1" stroke-width="1" stroke-opacity="1" alignment-baseline="baseline" baseline-shift="baseline" id="tSvg3b49c5385d" title="Path 10" d="M478.2997 807.6803C474.8263 822.6057 466.3958 828.2806 450.5193 826.1742C442.971 825.1727 435.4448 823.7235 428.1372 821.439C421.1369 819.2506 418.9874 815.4309 420.5493 808.2524C424.2159 791.4009 427.8386 774.5399 431.5276 757.6933C433.4284 749.0123 436.6162 746.944 445.1953 748.491C452.8784 749.8765 460.5582 751.3357 467.9456 753.8723C478.288 757.4234 483.006 764.8042 482.3383 775.6378C481.9356 782.1718 477.3567 785.859 472.3917 789.9564C476.459 794.998 479.1761 800.5701 478.2997 807.6803ZM444.9851 794.785C441.7218 797.5599 442.294 801.6514 441.493 805.2437C441.2133 806.498 442.2512 807.3201 443.5298 807.6766C446.8918 808.6141 450.2659 809.6727 453.7745 809.5621C457.3305 809.4502 459.8086 807.4749 460.4758 803.9467C461.0958 800.6683 459.0752 798.6839 456.34 797.2756C452.9997 795.5558 449.283 795.5002 444.9851 794.785ZM463.4955 776.0647C462.8199 770.229 458.7567 767.9602 448.9944 767.9999C447.403 770.4111 447.4491 773.3511 446.586 776.0093C446.1505 777.3508 446.4344 778.5694 447.8905 779.3788C452.5556 781.9718 459.7675 780.7747 463.4955 776.0647Z"/><path fill="#000000" stroke="none" fill-opacity="1" stroke-width="1" stroke-opacity="1" alignment-baseline="baseline" baseline-shift="baseline" id="tSvgc597c03b1b" title="Path 11" d="M738.4288 704.4692C730.4969 690.9648 722.6096 677.8544 715.0822 664.5405C710.4414 656.3325 710.8923 651.3881 715.9781 645.814C718.9806 642.5234 722.4467 640.9059 727.1081 642.3919C746.7213 648.6446 766.3989 654.6955 786.0102 660.954C791.6049 662.7394 795.4959 667.228 795.1867 671.5541C794.8326 676.5088 791.6636 679.5579 787.3066 681.606C783.9921 683.164 781.0429 681.7252 778.2503 680.4634C774.7366 678.8759 772.4722 678.9935 769.963 682.5168C766.4147 687.4995 762.0215 691.8802 757.9536 696.5596C758.9163 699.6042 761.244 701.6348 762.7352 704.1776C765.5216 708.9292 764.918 713.5894 761.0305 716.7084C756.238 720.5533 751.028 720.7057 746.981 717.1182C743.144 713.7168 741.4226 708.8828 738.4288 704.4692ZM744.4526 678.9509C747.9364 681.0539 751.0893 678.5474 753.1902 671.7464C747.5116 669.4626 741.8087 667.1689 736.1057 664.8752C735.8986 665.1504 735.6916 665.4256 735.4845 665.7008C738.3472 669.9254 741.2098 674.15 744.4526 678.9509Z"/><path fill="#000000" stroke="none" fill-opacity="1" stroke-width="1" stroke-opacity="1" alignment-baseline="baseline" baseline-shift="baseline" id="tSvga7fc9ab420" title="Path 12" d="M357.1465 741.1104C352.221 747.4191 347.767 753.6364 342.1351 758.9127C331.1916 769.1652 316.1254 770.1954 304.3169 761.298C290.6197 750.9777 286.6251 736.501 294.3815 722.7603C301.9558 709.3422 312.54 698.1681 322.9932 686.9879C326.0821 683.6842 330.4258 683.8857 333.7897 686.7088C337.5831 689.8923 338.7272 695.8875 335.9606 700.3183C331.8958 706.8284 326.5687 712.3851 321.699 718.2831C318.5255 722.1268 314.9632 725.6987 312.1722 729.7988C306.2896 738.4403 309.8177 746.6388 319.9926 749.0688C324.2684 750.09 327.2881 747.9565 329.542 745.1195C334.8119 738.4865 339.6461 731.5079 344.6731 724.6814C347.2377 721.1988 349.6642 717.5945 352.4638 714.3101C356.2936 709.8171 360.0345 709.4651 364.6914 712.7118C369.2922 715.9195 370.8936 721.3163 368.0372 725.7764C364.7237 730.9502 360.9391 735.8223 357.1465 741.1104Z"/><path fill="#000000" stroke="none" fill-opacity="1" stroke-width="1" stroke-opacity="1" alignment-baseline="baseline" baseline-shift="baseline" id="tSvg179ccfdcff0" title="Path 13" d="M709.4042 736.3643C711.2446 739.3582 712.9272 739.0773 715.126 737.0613C719.2915 733.2417 723.5688 729.5291 727.977 725.9932C732.6207 722.2685 737.3597 722.503 740.9123 726.2996C744.5839 730.2233 744.4596 734.6148 739.9177 739.0139C732.7502 745.9561 725.4011 752.7206 717.9359 759.3427C712.6129 764.0642 708.4191 763.9566 703.679 758.6241C694.3988 748.1841 685.4293 737.4672 676.3727 726.8298C672.8175 722.6541 669.1283 718.5592 665.9454 714.109C662.4995 709.2911 662.8651 706.1418 667.1298 702.2435C674.3737 695.6223 681.7128 689.0942 689.23 682.7871C694.2512 678.5743 699.1855 678.6795 702.5219 682.47C706.4324 686.9128 706.0457 691.9376 701.3732 696.6722C696.9477 701.1564 691.5096 704.5824 687.5024 709.8383C688.6866 712.8954 691.3088 714.7242 693.7274 717.5488C697.7429 714.0014 701.5275 710.6172 705.3578 707.2859C708.8541 704.2451 712.8297 703.5038 716.8469 705.8799C721.8246 708.8241 722.4564 714.8574 718.2386 719.5869C715.7059 722.4269 712.8043 725.0012 709.7861 727.3288C706.0742 730.1913 705.3631 732.9078 709.4042 736.3643Z"/><path fill="#000000" stroke="none" fill-opacity="1" stroke-width="1" stroke-opacity="1" alignment-baseline="baseline" baseline-shift="baseline" id="tSvg4ecc73af65" title="Path 14" d="M556.6542 754.5178C563.8186 752.7281 570.5509 750.9005 577.3464 749.3502C582.3549 748.2076 586.4615 750.9021 587.9819 755.9358C589.5352 761.0785 587.5477 764.9628 582.0789 766.7733C577.0383 768.442 571.9306 769.9521 566.7742 771.2119C563.1305 772.1021 563.0153 774.3662 563.6299 777.2607C564.2945 780.391 566.086 781.2457 569.1043 780.3307C573.0765 779.1264 577.0818 778.0016 581.1246 777.0662C586.3848 775.8489 590.6265 778.3329 592.0208 783.2099C593.3799 787.9639 591.0356 792.4856 586.0009 794.2141C582.2378 795.506 578.3594 796.4787 574.5002 797.4687C571.3 798.2896 569.6042 799.4893 570.846 803.3916C571.9293 806.7955 573.0469 808.0183 576.8157 806.8889C582.0385 805.3237 587.4497 804.2771 592.8466 803.434C598.3369 802.5762 602.0123 805.3137 603.144 810.4811C604.2274 815.428 602.1845 819.515 596.9984 820.8693C586.5646 823.5939 576.0464 826.0465 565.4749 828.1724C559.6807 829.3376 556.5693 827.0205 554.9352 820.2307C551.5986 806.3663 548.6617 792.4045 545.6508 778.4633C544.7078 774.0967 543.594 769.7454 543.6379 765.2097C543.6967 759.1313 545.0893 757.217 550.8896 755.7271C552.6562 755.2733 554.4615 754.9706 556.6542 754.5178Z"/><path fill="#000000" stroke="none" fill-opacity="1" stroke-width="1" stroke-opacity="1" alignment-baseline="baseline" baseline-shift="baseline" id="tSvgcfc49c9bad" title="Path 15" d="M657.5519 748.5139C663.1985 757.9576 668.6696 767.0824 674.0859 776.2397C676.3597 780.0841 677.0957 783.9119 673.8947 787.7636C669.5601 792.9792 663.1085 793.4066 659.0815 787.9968C655.2297 782.8221 652.1835 777.0485 648.7745 771.5433C644.5747 764.7614 640.2527 758.0513 636.2151 751.1742C634.5291 748.3024 632.8023 747.4122 629.8904 749.3297C628.5107 750.2382 626.9802 750.9293 625.4832 751.6461C619.0566 754.7228 615.041 753.4366 611.8632 747.3179C609.0724 741.9443 610.5628 737.1605 616.2753 733.924C626.9788 727.8601 637.7091 721.8412 648.502 715.9382C655.0276 712.3691 659.322 713.1516 662.3559 718.104C666.0377 724.1138 664.7641 729.1916 658.4521 733.3458C656.2621 734.7871 653.9681 736.0704 651.6667 737.4592C652.6849 741.7607 655.4611 744.7555 657.5519 748.5139Z"/><path fill="#000000" stroke="none" fill-opacity="1" stroke-width="1" stroke-opacity="1" alignment-baseline="baseline" baseline-shift="baseline" id="tSvg12cb1214930" title="Path 16" d="M518.9952 832.2116C512.6749 832.2389 506.8689 832.1208 501.0667 831.4074C495.9574 830.7792 492.8097 828.325 492.7763 823.321C492.6532 804.8457 492.5898 786.3636 492.9807 767.8942C493.1428 760.2368 496.4539 757.4394 502.9382 757.6638C508.0745 757.8415 510.7843 760.4135 511.3584 765.5998C512.8288 778.8831 511.829 792.2092 512.0464 805.5139C512.1628 812.642 512.0559 812.6411 519.176 812.6499C523.0046 812.6547 526.8411 812.5204 530.66 812.7178C535.7285 812.9797 538.9228 816.2809 539.321 821.3076C539.8014 827.3722 537.5256 830.9799 531.938 831.789C527.8543 832.3803 523.6448 832.1031 518.9952 832.2116Z"/><path fill="#000000" stroke="none" fill-opacity="1" stroke-width="1" stroke-opacity="1" alignment-baseline="baseline" baseline-shift="baseline" id="tSvg48476143d8" title="Path 17" d="M407.3362 450.2677C390.5053 448.4394 376.2425 435.8819 375.2392 416.5876C374.8717 409.5215 375.917 402.6398 378.5844 396.1174C389.7767 368.7501 408.8092 349.7461 437.9522 342.4325C458.1447 337.3651 477.4731 351.9787 479.4814 372.6006C480.5941 384.027 477.5917 394.3876 472.4097 404.1997C462.1404 423.6445 447.4911 438.6144 426.7786 446.9599C420.7234 449.3996 414.3813 450.6935 407.3362 450.2677ZM456.0461 392.472C448.9914 385.1309 440.9961 383.3112 432.5778 387.1308C425.8534 390.1818 422.1199 395.6898 422.868 402.3309C434.0102 393.8597 445.7776 392.5018 457.9884 399.5969C458.744 396.3722 457.2273 394.8288 456.0461 392.472Z"/><path fill="#000000" stroke="none" fill-opacity="1" stroke-width="1" stroke-opacity="1" alignment-baseline="baseline" baseline-shift="baseline" id="tSvg250a605f55" title="Path 18" d="M568.9918 431.0185C555.4058 417.7535 546.5959 402.3532 543.0418 383.8776C537.8904 357.0987 560.9545 334.9571 586.8163 343.3839C618.3291 353.6521 639.3979 375.3401 644.8101 408.3625C650.0104 440.0926 621.6566 455.2701 598.5891 448.6208C587.2662 445.3569 577.8 439.1245 568.9918 431.0185ZM590.8373 397.3052C593.8387 398.9524 596.8402 400.5996 600.5593 402.6407C600.3148 395.035 596.2495 390.8892 590.7192 387.7756C583.613 383.7748 575.2489 384.5941 568.8692 389.9628C566.0664 392.3214 563.3005 394.8584 564.1574 400.0611C572.8495 394.6054 581.3287 394.0535 590.8373 397.3052Z"/><path fill="#000000" stroke="none" fill-opacity="1" stroke-width="1" stroke-opacity="1" alignment-baseline="baseline" baseline-shift="baseline" id="tSvg1199c5132a8" title="Path 19" d="M531.8619 673.9365C522.3945 680.3717 511.7203 679.1566 506.4436 671.3216C501.8141 664.4476 502.9508 655.2422 509.1197 649.6485C515.1992 644.136 525.6162 644.1898 531.9498 649.7664C537.9071 655.0117 538.9667 664.0897 534.3864 671.0458C533.7552 672.0043 532.895 672.8121 531.8619 673.9365Z"/><path fill="#000000" stroke="none" fill-opacity="1" stroke-width="1" stroke-opacity="1" alignment-baseline="baseline" baseline-shift="baseline" id="tSvg133f039ebdd" title="Path 20" d="M537.486 717.058C531.127 724.5896 524.8214 726.3719 516.4694 723.2797C508.5814 720.3592 504.9703 713.1887 506.8882 704.2542C508.5094 696.7012 516.5663 690.9352 524.4156 691.7105C532.8228 692.541 539.1054 698.9956 539.3409 707.0473C539.4384 710.3818 539.5192 713.7145 537.486 717.058Z"/><path fill="#000000" stroke="none" fill-opacity="1" stroke-width="1" stroke-opacity="1" alignment-baseline="baseline" baseline-shift="baseline" id="tSvg11d7dadbf2b" title="Path 21" d="M577.4156 687.8996C572.9552 697.6167 565.2355 701.0624 556.7502 697.4806C547.7629 693.687 543.6516 684.0601 547.0918 674.8655C549.9224 667.3004 558.144 663.4924 566.3353 665.9525C574.9095 668.5276 579.8748 678.1033 577.4156 687.8996Z"/><path fill="#000000" stroke="none" fill-opacity="1" stroke-width="1" stroke-opacity="1" alignment-baseline="baseline" baseline-shift="baseline" id="tSvgb096452c1e" title="Path 22" d="M463.5901 687.9971C467.7805 680.2299 474.6223 677.05 482.4131 678.9316C490.2007 680.8125 494.4488 686.3483 494.6836 694.9215C494.8892 702.4277 490.3812 708.5441 482.7846 710.7063C476.6143 712.4625 471.0811 710.4504 466.7303 706.2958C461.5399 701.3394 460.9908 694.9987 463.5901 687.9971Z"/><path fill="#000000" stroke="none" fill-opacity="1" stroke-width="1" stroke-opacity="1" alignment-baseline="baseline" baseline-shift="baseline" id="tSvg2452262d29" title="Path 23" d="M461.1621 635.6326C471.6992 632.741 480.9331 637.5714 483.0677 646.777C485.2429 656.1581 479.2137 665.2148 469.8225 666.673C462.438 667.8196 454.3224 663.0477 451.9047 656.1375C449.1881 648.373 452.854 639.9296 461.1621 635.6326Z"/><defs/></svg>