<?xml version="1.0" encoding="UTF-8" standalone="no"?>
<!DOCTYPE svg PUBLIC "-//W3C//DTD SVG 1.1//EN" "http://www.w3.org/Graphics/SVG/1.1/DTD/svg11.dtd">
<svg width="100%" height="100%" viewBox="0 0 4167 4167" version="1.1" xmlns="http://www.w3.org/2000/svg" xmlns:xlink="http://www.w3.org/1999/xlink" xml:space="preserve" xmlns:serif="http://www.serif.com/" style="fill-rule:evenodd;clip-rule:evenodd;stroke-linejoin:round;stroke-miterlimit:2;">
    <g id="Página-1" serif:id="Página 1" transform="matrix(4.166667,0,0,4.166667,0,0)">
        <rect x="0" y="0" width="1000" height="1000" style="fill:none;"/>
        <g id="Capa-1" serif:id="Capa 1">
            <g transform="matrix(1,0,0,1,876.1489,574.8187)">
                <path d="M0,-149.368C3.186,-130.599 5.171,-112.174 6.249,-93.563C7.128,-78.361 6.851,-63.231 5.795,-48.166C3.311,-12.718 -3.894,21.827 -15.87,55.369C-32.531,102.035 -57.372,143.965 -89.521,181.461C-126.684,224.806 -171.378,258.395 -223.368,282.236C-255.336,296.896 -288.692,306.821 -323.448,311.772C-348.375,315.323 -373.447,315.803 -398.641,314.29C-456.373,310.824 -510.008,294.029 -559.973,265.387C-634.895,222.438 -689.967,161.366 -725.338,82.556C-739.3,51.446 -748.815,18.986 -754.42,-14.601C-758.958,-41.789 -759.867,-69.277 -758.467,-96.71C-755.439,-156.014 -740.029,-212.054 -711.821,-264.419C-693.848,-297.785 -671.397,-327.848 -644.45,-354.519C-607.779,-390.814 -565.725,-419.062 -517.934,-438.592C-492.918,-448.815 -466.893,-455.403 -440.222,-459.76C-415.999,-463.717 -391.666,-465.171 -367.178,-464.628C-309.924,-463.357 -255.451,-450.327 -204.484,-424.243C-127.328,-384.757 -69.801,-325.662 -31.962,-247.679C-17.385,-217.636 -7.09,-186.049 -0.866,-153.189C-0.65,-152.048 -0.313,-150.929 0,-149.368M-22.295,-6.548C-18.713,-23.647 -16.697,-40.987 -15.824,-58.379C-14.612,-82.519 -16.214,-106.621 -19.882,-130.506C-25.8,-169.033 -36.869,-206.057 -54.166,-241.045C-81.828,-296.999 -121.416,-342.738 -172.81,-378.214C-229.196,-417.136 -291.959,-437.284 -360.081,-440.756C-392.923,-442.431 -425.539,-439.374 -457.684,-432.033C-539.86,-413.266 -607.789,-371.283 -658.703,-304.21C-714.03,-231.322 -740.283,-148.526 -736.127,-56.572C-735.179,-35.593 -732.332,-14.918 -727.558,5.462C-707.632,90.526 -663.961,160.877 -595.318,215.044C-537.218,260.892 -471.035,287.18 -396.983,292.154C-369.739,293.984 -342.512,292.447 -315.474,287.568C-249.343,275.633 -191.839,246.191 -141.38,202.452C-106.101,171.872 -78.191,135.397 -56.818,93.928C-40.56,62.383 -29.031,29.187 -22.295,-6.548" style="fill:rgb(1,2,3);fill-rule:nonzero;"/>
            </g>
            <g transform="matrix(1,0,0,1,521.2729,773.3498)">
                <path d="M0,-497.072C11.672,-497.276 15.096,-495.119 18.822,-485.001C19.579,-482.947 20.936,-481.989 22.676,-481.513C36.695,-477.68 50.165,-472.462 63.078,-465.796C63.492,-465.582 64.023,-465.597 64.758,-465.457C66.273,-467.574 67.673,-469.829 69.361,-471.841C80.188,-484.742 93.727,-489.672 110.629,-487.435C138.117,-483.798 154.811,-467.975 162.89,-442.482C169.147,-422.738 161.899,-401.14 145.626,-388.363C142.982,-386.287 142.014,-384.852 143.616,-381.5C151.056,-365.935 156.011,-349.499 157.566,-332.355C160.688,-297.917 154.406,-266.054 129.781,-239.824C128.432,-238.387 127.192,-236.848 125.489,-234.88C132.664,-228.709 138.714,-221.886 143.926,-214.387C156.637,-196.098 163.679,-176.071 165.159,-153.562C167.309,-120.875 146.759,-80.816 111.472,-68.914C99.798,-64.975 87.834,-63.405 75.63,-66.056C72.554,-66.724 71.345,-65.74 70.851,-62.826C69.27,-53.499 66.863,-44.249 66.105,-34.861C65.301,-24.908 60.038,-18.642 52.217,-13.809C42.542,-7.829 31.621,-5.355 20.601,-3.625C4.808,-1.146 -11.127,0.204 -27.127,-0.541C-47.448,-1.489 -67.489,-3.862 -86.509,-12C-97.65,-16.768 -103.935,-24.091 -104.988,-36.645C-105.925,-47.813 -107.639,-59.004 -110.259,-70.117C-111.132,-70.117 -111.841,-70.307 -112.389,-70.09C-155.896,-52.925 -200.095,-83.157 -208.751,-126.253C-215.337,-159.043 -207.345,-188.145 -187.055,-214.309C-182.125,-220.666 -176.567,-226.4 -170.508,-231.602C-167.348,-234.315 -167.752,-235.921 -170.361,-238.747C-187.062,-256.84 -196.001,-278.342 -198.935,-302.752C-202.115,-329.199 -196.639,-353.969 -186.225,-378.008C-183.198,-384.994 -183.328,-384.797 -189.126,-389.385C-203.744,-400.951 -209.697,-416.197 -207.881,-434.656C-205.796,-455.848 -195.191,-471.621 -176.769,-481.727C-163.602,-488.95 -149.109,-490.023 -134.569,-486.739C-124.242,-484.407 -116.318,-478.116 -110.475,-469.275C-109.481,-467.771 -108.511,-466.252 -107.422,-464.573C-100.479,-467.705 -93.944,-470.955 -87.186,-473.645C-67.193,-481.602 -46.414,-485.681 -24.859,-485.09C-19.945,-484.955 -16.048,-486.421 -12.796,-489.848C-9.359,-493.47 -5.176,-495.703 0,-497.072M102.092,-416.892C80.001,-440.851 53.274,-457.338 22.102,-466.767C18.084,-467.982 15.214,-468.024 12.114,-464.376C7.359,-458.781 2.627,-458.061 -3.253,-460.682C-3.45,-461.973 -2.443,-462.473 -1.594,-462.869C3.061,-465.045 5.123,-469.247 6.63,-473.7C7.652,-476.719 8.181,-480.188 5.127,-482.411C2.14,-484.586 -0.151,-481.958 -2.401,-480.409C-4.731,-478.805 -6.905,-476.974 -9.182,-475.29C-12.765,-472.638 -16.745,-471.017 -21.264,-471.299C-28.965,-471.778 -36.538,-470.728 -44.109,-469.606C-90.271,-462.769 -127.344,-440.509 -154.685,-402.852C-176.112,-373.341 -188.491,-340.68 -184.13,-303.387C-179.643,-265.011 -157.907,-239.698 -123.411,-224.278C-122.546,-223.892 -121.527,-223.853 -120.536,-223.642C-120.059,-224.37 -119.607,-224.879 -119.356,-225.472C-114.283,-237.471 -111.78,-239.14 -98.769,-239.142C-82.936,-239.145 -67.103,-239.125 -51.27,-239.177C-49.069,-239.184 -46.474,-238.504 -45.707,-241.883C-43.622,-251.061 -41.767,-260.273 -40.403,-270.357C-44.464,-268.98 -47.904,-269.946 -51.277,-270.561C-62.274,-272.566 -70.684,-278.239 -75.118,-288.854C-76.237,-291.534 -76.588,-294.49 -74.284,-296.8C-72.169,-298.92 -69.453,-298.915 -66.829,-297.794C-64.913,-296.975 -63.812,-295.229 -62.809,-293.476C-60.863,-290.077 -58.337,-287.23 -54.802,-285.453C-47.686,-281.877 -40.566,-282.258 -33.832,-286.242C-29.093,-289.046 -27.682,-293.754 -27.759,-299.116C-27.801,-302 -28.676,-303.769 -31.578,-304.69C-35.745,-306.014 -39.44,-308.364 -42.773,-311.148C-50.579,-317.668 -49.889,-329.945 -41.476,-335.582C-36.962,-338.607 -32.169,-340.578 -26.52,-340.263C-22.545,-340.041 -18.536,-340.429 -14.542,-340.54C-7.717,-340.73 -1.743,-338.574 3.163,-333.817C9.395,-327.775 9.083,-317.238 2.476,-311.607C-0.824,-308.794 -4.469,-306.423 -8.483,-304.704C-14.264,-302.229 -15.146,-300.432 -13.706,-294.378C-12.57,-289.599 -9.628,-286.456 -5.184,-284.646C5.145,-280.439 15.266,-283.953 20.895,-293.653C23.296,-297.791 27.047,-299.557 30.359,-297.665C34.23,-295.453 34.441,-291.999 32.872,-288.122C29.886,-280.744 24.519,-275.718 17.326,-272.725C11.099,-270.134 4.564,-269.328 -2.218,-270.222C-4.813,-270.564 -8.603,-271.801 -9.518,-268.015C-11.726,-258.876 -13.505,-249.619 -14.282,-240.224C-11.712,-238.795 -9.343,-239.163 -7.065,-239.16C13.435,-239.13 33.943,-238.798 54.432,-239.284C65.039,-239.535 72.655,-236.454 76.134,-225.865C76.903,-223.523 78.383,-222.812 80.767,-223.95C84.519,-225.741 88.483,-227.119 92.127,-229.097C132.698,-251.116 148.232,-292.105 141.896,-333.652C137.115,-364.999 123.499,-392.513 102.092,-416.892M53.551,-49.012C55.041,-57.166 56.519,-65.322 58.03,-73.472C58.363,-75.273 57.705,-76.691 56.647,-78.078C51.176,-85.243 48.698,-93.373 49.231,-102.345C49.482,-106.557 48.282,-107.983 43.783,-106.994C23.274,-102.489 3.515,-105.235 -15.575,-113.726C-28.493,-119.471 -41.414,-125.272 -55.392,-128.04C-67.682,-130.475 -79.826,-130.112 -91.712,-125.679C-95.764,-124.168 -97.24,-122.307 -95.597,-117.552C-91.959,-107.022 -91.718,-96.344 -97.144,-86.107C-97.957,-84.573 -97.982,-83.051 -97.682,-81.301C-95.384,-67.898 -92.892,-54.515 -91.15,-41.036C-90.13,-33.151 -87.69,-27.307 -79.53,-24.363C-63.937,-18.739 -47.966,-15.03 -31.449,-14.274C-17.159,-13.621 -2.827,-13.916 11.35,-16.241C22.848,-18.127 34.285,-20.332 44.619,-26.171C47.589,-27.85 50.322,-29.809 50.979,-33.428C51.868,-38.321 52.569,-43.25 53.551,-49.012M-90.963,-173.17C-35.149,-173.171 20.665,-173.172 76.478,-173.174C88.204,-173.175 88.204,-173.177 88.246,-185.119C88.269,-191.664 88.269,-191.676 81.61,-191.675C44.623,-191.669 7.636,-191.549 -29.35,-191.677C-60.999,-191.787 -92.647,-192.198 -124.296,-192.428C-130.769,-192.474 -131.097,-192.053 -131.115,-185.673C-131.122,-183.008 -130.948,-180.329 -131.151,-177.679C-131.426,-174.104 -129.835,-173.087 -126.45,-173.128C-114.956,-173.268 -103.459,-173.175 -90.963,-173.17M-34.963,-223.633C-56.276,-223.649 -77.589,-223.682 -98.902,-223.652C-101.119,-223.649 -103.933,-224.479 -105.01,-221.593C-106.846,-216.67 -108.933,-211.773 -109.276,-206.524C-107.723,-205.288 -106.241,-205.176 -104.741,-205.19C-96.414,-205.264 -88.094,-204.308 -79.808,-204.336C-34.362,-204.488 11.094,-203.238 56.532,-205.016C68.15,-205.471 67.954,-205.379 64.8,-216.675C63.38,-221.76 61.097,-223.872 55.451,-223.814C25.649,-223.505 -4.157,-223.645 -34.963,-223.633M-19.752,-159.584C-24.341,-160.504 -26.423,-158.404 -26.969,-153.954C-27.616,-148.691 -28.325,-143.412 -29.462,-138.24C-30.092,-135.376 -29.004,-134.376 -26.662,-133.484C-20.599,-131.175 -14.538,-128.842 -8.582,-126.273C5.406,-120.24 20.112,-119.226 34.989,-120.315C43.624,-120.947 52.039,-123.091 59.625,-127.65C61.372,-128.7 63.134,-129.768 63.515,-131.942C65.077,-140.854 66.565,-149.78 68.23,-159.582C38.713,-159.582 9.956,-159.582 -19.752,-159.584M-90.961,-159.649L-108.557,-159.649C-107.828,-151.287 -106.288,-143.938 -104.181,-136.224C-99.464,-137.828 -95.59,-140.109 -91.249,-141.217C-81.924,-143.597 -72.469,-143.317 -63.001,-143.156C-60.401,-143.112 -57.626,-143.098 -57.099,-146.328C-56.419,-150.496 -55.093,-154.621 -55.433,-159.648C-67.083,-159.648 -78.523,-159.648 -90.961,-159.649M-140.883,-138.728C-134.704,-131.996 -127.241,-127.504 -118.397,-125.413C-125.734,-132.587 -136.359,-134.808 -143.482,-142.423C-142.763,-141.354 -142.045,-140.285 -140.883,-138.728M85.303,-131.494C83.071,-130.094 80.436,-129.21 79.035,-126.735C86.987,-129.116 93.835,-133.016 98.346,-140.176C94.502,-136.971 90.166,-134.483 85.303,-131.494" style="fill:rgb(1,2,3);fill-rule:nonzero;"/>
            </g>
            <g transform="matrix(1,0,0,1,450.1059,237.0598)">
                <path d="M0,-70.576C4.57,-79.907 16.177,-81.944 23.629,-74.673C31.741,-66.757 38.213,-57.387 45.445,-48.69C49.359,-43.983 53.199,-39.216 57.647,-33.773C58.754,-37.9 58.296,-41.188 58.33,-44.407C58.412,-52.067 58.319,-59.729 58.383,-67.39C58.45,-75.344 62.375,-79.707 69.471,-79.869C78.139,-80.066 82.805,-75.981 82.989,-67.519C83.197,-58.03 83.05,-48.534 83.053,-39.041C83.055,-27.55 82.97,-16.058 83.088,-4.567C83.143,0.918 82.255,5.807 76.734,8.421C71.093,11.09 63.666,10.01 59.17,5.219C54.055,-0.232 49.464,-6.177 44.697,-11.949C38.48,-19.478 32.314,-27.049 25.433,-35.447C24.922,-28.836 25.245,-23.488 25.768,-18.052C26.356,-11.944 26.182,-5.735 25.967,0.417C25.757,6.393 21.611,9.909 14.532,10.699C8.528,11.368 3.886,8.473 2.209,2.97C1.872,1.865 1.484,0.722 1.447,-0.414C0.723,-22.523 0.039,-44.632 -0.614,-66.743C-0.647,-67.885 -0.323,-69.038 0,-70.576" style="fill:rgb(1,2,3);fill-rule:nonzero;"/>
            </g>
            <g transform="matrix(1,0,0,1,550.0699,182.2807)">
                <path d="M0,61.329C-0.96,57.957 -0.561,55.064 0.341,52.133C6.393,32.454 12.53,12.799 18.318,-6.958C20.281,-13.658 26.133,-18.624 34.247,-16.253C44.783,-13.175 55.382,-10.262 65.326,-5.629C93.369,7.439 98.557,43.36 75.593,64.813C64.17,75.485 50.806,79.953 35.23,76.653C26.297,74.76 17.462,72.49 8.872,69.369C5.013,67.967 1.717,65.799 0,61.329M38.565,54.764C47.997,56.78 55.913,53.736 61.138,46.084C66.663,37.991 66.894,28.713 61.647,20.826C57.502,14.595 50.478,13.52 44.139,11.179C40.6,9.872 39.026,11.092 38.008,14.533C35.465,23.127 32.633,31.635 29.938,40.184C26.357,51.547 26.366,51.55 38.565,54.764" style="fill:rgb(1,2,3);fill-rule:nonzero;"/>
            </g>
            <g transform="matrix(1,0,0,1,379.1789,182.7178)">
                <path d="M0,89.404C-1.545,90.14 -2.734,90.749 -3.987,91.17C-11.955,93.847 -18.361,89.846 -18.627,81.528C-19.38,57.92 -20.097,34.308 -19.746,10.68C-19.692,7.049 -18.197,4.286 -15.548,2.034C-7.929,-4.443 4.112,-4.049 11.032,3.015C26.877,19.188 41.338,36.617 56.544,53.372C61.432,58.759 61.511,66.432 56.717,69.853C50.14,74.547 42.689,76.354 37.199,69.627C31.088,62.139 30.813,62.355 21.824,65.541C19.788,66.263 17.824,67.246 15.74,67.76C8.287,69.596 3.029,72.757 4.798,81.946C5.384,84.991 3.094,87.547 0,89.404M2.047,30.44C2.368,35.218 2.691,39.995 3.01,44.773C3.162,47.037 4.038,49.01 6.609,48.253C10.012,47.252 13.651,46.614 16.986,44.024C12.399,38.983 8.001,34.114 3.545,29.3C3.014,28.726 2.353,28.976 2.047,30.44" style="fill:rgb(1,2,3);fill-rule:nonzero;"/>
            </g>
            <g transform="matrix(1,0,0,1,677.4679,234.9708)">
                <path d="M0,64.44C0,63.679 -0.107,63.296 0.02,63.02C3.525,55.42 -1.281,51.64 -6.678,47.894C-11.317,44.674 -15.698,41.082 -20.469,37.444C-22.907,39.174 -25.245,40.974 -27.721,42.56C-33.455,46.233 -40.66,44.226 -44.947,37.861C-48.198,33.035 -46.829,27.054 -41.103,23.233C-23.521,11.504 -5.767,0.034 11.794,-11.726C18.657,-16.321 25.041,-15.354 31.204,-10.85C37.25,-6.433 39.652,-0.447 37.918,7.057C33.022,28.237 28.146,49.421 23.364,70.627C22.238,75.618 19.149,78.434 14.419,79.628C9.927,80.761 7.742,77.393 5.528,74.543C3.245,71.604 -0.313,69.313 0,64.44M12.476,14.927C6.532,16.469 2.43,20.615 -2.12,24.599C1.155,27.87 4.062,30.649 8.028,32.891C10.352,26.947 12.15,21.352 12.476,14.927" style="fill:rgb(1,2,3);fill-rule:nonzero;"/>
            </g>
            <g transform="matrix(1,0,0,1,302.5539,301.9797)">
                <path d="M0,-88.414C13.279,-94.904 25.508,-93.865 36.032,-83.977C45.844,-74.758 49.587,-63.159 45.809,-49.888C43.514,-41.826 36.98,-36.815 31.161,-31.385C30.369,-30.646 29.441,-30.055 28.59,-29.379C20.563,-23.011 20.559,-23.007 26.209,-14.75C27.353,-13.078 31.388,-10.14 29.377,-8.201C27.365,-6.262 18.315,0.87 14.99,6.49C12.033,6.467 10.911,4.353 9.516,2.828C-4.447,-12.436 -17.188,-28.685 -29.228,-45.491C-30.385,-47.107 -31.415,-48.828 -32.371,-50.573C-36.22,-57.6 -35.544,-62.868 -29.182,-67.833C-19.908,-75.072 -10.655,-82.394 0,-88.414M8.571,-64.986C4.492,-63.325 1.473,-60.107 -2.097,-57.696C-3.558,-56.71 -4.105,-55.501 -3.153,-53.566C2.969,-41.125 9.866,-40.106 18.568,-50.509C21.45,-53.954 22.839,-57.892 20.221,-61.911C17.695,-65.788 13.848,-66.985 8.571,-64.986" style="fill:rgb(1,2,3);fill-rule:nonzero;"/>
            </g>
            <g transform="matrix(1,0,0,1,296.2339,723.9418)">
                <path d="M0,-48.796C1.993,-46.111 3.97,-43.822 5.498,-41.265C11.771,-30.766 8.189,-16.316 -1.865,-10.152C-5.667,-7.822 -9.807,-8.214 -14.208,-7.914C-14.16,0.813 -18.272,7.025 -25.323,11.528C-33.485,16.741 -42.892,16.312 -50.122,9.733C-57.39,3.121 -64.006,-4.162 -69.435,-12.404C-73.24,-18.18 -72.784,-23.049 -67.488,-27.444C-53.792,-38.809 -39.967,-50.025 -26.01,-61.068C-20.362,-65.537 -14.994,-64.91 -9.967,-59.767C-6.598,-56.32 -3.462,-52.643 0,-48.796M-41.468,-5.838C-38.406,-3.075 -35.62,-3.544 -32.8,-6.346C-30.489,-8.643 -29.97,-11.377 -31.209,-14.077C-33.069,-18.129 -35.548,-21.877 -39.484,-24.304C-39.84,-24.523 -40.798,-24.118 -41.268,-23.742C-44.073,-21.495 -47.268,-19.69 -49.691,-16.677C-47.389,-12.913 -45.179,-9.265 -41.468,-5.838M-10.806,-33.59C-12.998,-36.86 -15.317,-40.016 -18.716,-42.628C-21.073,-40.509 -23.287,-38.55 -25.461,-36.549C-26.318,-35.759 -27.288,-34.83 -26.442,-33.572C-24.002,-29.943 -21.202,-26.58 -16.586,-25.863C-12.432,-25.218 -9.849,-28.409 -10.806,-33.59" style="fill:rgb(1,2,3);fill-rule:nonzero;"/>
            </g>
            <g transform="matrix(1,0,0,1,397.7859,760.116)">
                <path d="M0,53.866C-6.936,66.367 -17.369,70.106 -30.058,64.657C-37.539,61.443 -44.966,58.041 -51.892,53.718C-57.867,49.987 -59.107,45.605 -56.032,39.234C-48.368,23.358 -40.634,7.514 -32.86,-8.309C-29.694,-14.753 -26.469,-16.24 -19.98,-13.668C-11.944,-10.483 -4.254,-6.544 3.186,-2.085C17.074,6.239 17.77,27.503 0.969,34.147C0.24,34.435 -0.389,34.973 -1.29,35.535C1.655,41.434 2.364,47.377 0,53.866M-15.375,42.809C-17.016,34.307 -24.665,34.662 -30.303,32.046C-36.161,40.789 -36.339,42.584 -31.848,45.135C-22.063,50.694 -18.559,50.353 -15.375,42.809M-11.98,9.956C-14.28,9.139 -16.274,7.424 -18.87,7.528C-25.457,17.765 -24.467,17.761 -13.441,21.794C-12.427,22.164 -11.106,22.069 -10.022,21.803C-6.745,20.996 -4.801,17.301 -6.04,14.544C-7.084,12.22 -9.286,11.359 -11.98,9.956" style="fill:rgb(1,2,3);fill-rule:nonzero;"/>
            </g>
            <g transform="matrix(1,0,0,1,468.1099,788.0721)">
                <path d="M0,40.136C-3.473,55.061 -11.904,60.736 -27.78,58.63C-35.329,57.628 -42.855,56.179 -50.162,53.895C-57.163,51.706 -59.312,47.887 -57.75,40.708C-54.084,23.857 -50.461,6.996 -46.772,-9.851C-44.871,-18.532 -41.683,-20.6 -33.104,-19.053C-25.421,-17.667 -17.741,-16.208 -10.354,-13.672C-0.012,-10.121 4.706,-2.74 4.039,8.094C3.636,14.628 -0.943,18.315 -5.908,22.412C-1.841,27.454 0.876,33.026 0,40.136M-33.315,27.241C-36.578,30.016 -36.006,34.107 -36.807,37.699C-37.086,38.954 -36.048,39.776 -34.77,40.132C-31.408,41.07 -28.034,42.128 -24.525,42.018C-20.969,41.906 -18.491,39.931 -17.824,36.402C-17.204,33.124 -19.224,31.14 -21.96,29.731C-25.3,28.012 -29.017,27.956 -33.315,27.241M-14.804,8.52C-15.48,2.685 -19.543,0.416 -29.305,0.456C-30.897,2.867 -30.851,5.807 -31.714,8.465C-32.149,9.807 -31.865,11.025 -30.409,11.835C-25.744,14.428 -18.532,13.23 -14.804,8.52" style="fill:rgb(1,2,3);fill-rule:nonzero;"/>
            </g>
            <g transform="matrix(1,0,0,1,728.2389,677.6708)">
                <path d="M0,47.326C-7.932,33.822 -15.819,20.711 -23.346,7.398C-27.987,-0.81 -27.536,-5.755 -22.451,-11.329C-19.448,-14.62 -15.982,-16.237 -11.321,-14.751C8.293,-8.498 27.97,-2.447 47.582,3.811C53.176,5.596 57.067,10.085 56.758,14.411C56.404,19.366 53.235,22.415 48.878,24.463C45.563,26.021 42.614,24.582 39.822,23.32C36.308,21.733 34.044,21.851 31.534,25.374C27.986,30.357 23.593,34.737 19.525,39.417C20.488,42.461 22.815,44.492 24.307,47.035C27.093,51.786 26.489,56.446 22.602,59.565C17.809,63.41 12.599,63.563 8.552,59.975C4.715,56.574 2.994,51.74 0,47.326M6.024,21.808C9.508,23.911 12.661,21.404 14.762,14.603C9.083,12.32 3.38,10.026 -2.323,7.732C-2.53,8.007 -2.737,8.283 -2.944,8.558C-0.081,12.782 2.781,17.007 6.024,21.808" style="fill:rgb(1,2,3);fill-rule:nonzero;"/>
            </g>
            <g transform="matrix(1,0,0,1,346.9569,733.2968)">
                <path d="M0,28.341C-4.926,34.65 -9.38,40.867 -15.012,46.144C-25.955,56.396 -41.021,57.426 -52.83,48.529C-66.527,38.209 -70.522,23.732 -62.765,9.991C-55.191,-3.427 -44.607,-14.601 -34.153,-25.781C-31.065,-29.085 -26.721,-28.883 -23.357,-26.06C-19.564,-22.877 -18.419,-16.881 -21.186,-12.451C-25.251,-5.941 -30.578,-0.384 -35.448,5.514C-38.621,9.358 -42.183,12.93 -44.974,17.03C-50.857,25.671 -47.329,33.87 -37.154,36.3C-32.878,37.321 -29.859,35.188 -27.605,32.351C-22.335,25.718 -17.501,18.739 -12.474,11.912C-9.909,8.43 -7.482,4.826 -4.683,1.541C-0.853,-2.952 2.888,-3.304 7.545,-0.057C12.146,3.151 13.747,8.547 10.891,13.007C7.577,18.181 3.792,23.053 0,28.341" style="fill:rgb(1,2,3);fill-rule:nonzero;"/>
            </g>
            <g transform="matrix(1,0,0,1,699.2149,726.8018)">
                <path d="M0,30.09C1.84,33.084 3.523,32.803 5.721,30.787C9.887,26.968 14.164,23.255 18.572,19.719C23.216,15.995 27.955,16.229 31.508,20.026C35.179,23.949 35.055,28.341 30.513,32.74C23.346,39.682 15.996,46.447 8.531,53.069C3.208,57.79 -0.986,57.683 -5.726,52.35C-15.006,41.91 -23.975,31.193 -33.032,20.556C-36.587,16.38 -40.276,12.285 -43.459,7.835C-46.905,3.017 -46.54,-0.132 -42.275,-4.03C-35.031,-10.652 -27.692,-17.18 -20.175,-23.487C-15.153,-27.7 -10.219,-27.594 -6.883,-23.804C-2.972,-19.361 -3.359,-14.336 -8.031,-9.602C-12.457,-5.118 -17.895,-1.692 -21.902,3.564C-20.718,6.621 -18.096,8.45 -15.677,11.275C-11.662,7.727 -7.877,4.343 -4.047,1.012C-0.551,-2.029 3.425,-2.77 7.442,-0.394C12.42,2.55 13.052,8.583 8.834,13.313C6.301,16.153 3.4,18.727 0.381,21.055C-3.33,23.917 -4.042,26.634 0,30.09" style="fill:rgb(1,2,3);fill-rule:nonzero;"/>
            </g>
            <g transform="matrix(1,0,0,1,546.4649,843.5558)">
                <path d="M0,-68.51C7.164,-70.3 13.896,-72.127 20.692,-73.678C25.7,-74.82 29.807,-72.126 31.327,-67.092C32.881,-61.949 30.893,-58.065 25.424,-56.255C20.384,-54.586 15.276,-53.076 10.12,-51.816C6.476,-50.926 6.361,-48.662 6.975,-45.767C7.64,-42.637 9.431,-41.782 12.45,-42.697C16.422,-43.902 20.427,-45.026 24.47,-45.962C29.73,-47.179 33.972,-44.695 35.366,-39.818C36.725,-35.064 34.381,-30.542 29.346,-28.814C25.583,-27.522 21.705,-26.549 17.846,-25.559C14.645,-24.738 12.95,-23.539 14.191,-19.636C15.275,-16.233 16.392,-15.01 20.161,-16.139C25.384,-17.704 30.795,-18.751 36.192,-19.594C41.682,-20.452 45.358,-17.714 46.489,-12.547C47.573,-7.6 45.53,-3.513 40.344,-2.159C29.91,0.566 19.392,3.018 8.82,5.144C3.026,6.31 -0.085,3.993 -1.719,-2.797C-5.056,-16.662 -7.993,-30.624 -11.004,-44.565C-11.947,-48.931 -13.061,-53.283 -13.017,-57.818C-12.958,-63.897 -11.565,-65.811 -5.765,-67.301C-3.998,-67.755 -2.193,-68.057 0,-68.51" style="fill:rgb(1,2,3);fill-rule:nonzero;"/>
            </g>
            <g transform="matrix(1,0,0,1,647.3619,777.7898)">
                <path d="M0,-8.748C5.647,0.696 11.118,9.82 16.534,18.978C18.808,22.822 19.544,26.65 16.343,30.502C12.008,35.717 5.557,36.145 1.53,30.735C-2.322,25.56 -5.368,19.787 -8.777,14.281C-12.977,7.499 -17.299,0.789 -21.337,-6.088C-23.023,-8.96 -24.749,-9.85 -27.661,-7.932C-29.041,-7.024 -30.571,-6.333 -32.068,-5.616C-38.495,-2.539 -42.511,-3.825 -45.688,-9.944C-48.479,-15.318 -46.989,-20.101 -41.276,-23.338C-30.573,-29.402 -19.843,-35.421 -9.05,-41.324C-2.524,-44.893 1.77,-44.11 4.804,-39.158C8.486,-33.148 7.212,-28.07 0.9,-23.916C-1.29,-22.475 -3.584,-21.192 -5.885,-19.803C-4.867,-15.501 -2.091,-12.506 0,-8.748" style="fill:rgb(1,2,3);fill-rule:nonzero;"/>
            </g>
            <g transform="matrix(1,0,0,1,508.8059,778.1353)">
                <path d="M0,74.604C-6.321,74.631 -12.127,74.513 -17.929,73.8C-23.038,73.172 -26.186,70.717 -26.219,65.713C-26.342,47.238 -26.406,28.756 -26.015,10.286C-25.853,2.629 -22.542,-0.169 -16.057,0.056C-10.921,0.234 -8.211,2.806 -7.637,7.992C-6.167,21.276 -7.167,34.602 -6.949,47.906C-6.833,55.034 -6.94,55.034 0.18,55.042C4.009,55.047 7.845,54.913 11.664,55.11C16.733,55.372 19.927,58.673 20.325,63.7C20.806,69.765 18.53,73.372 12.942,74.181C8.859,74.773 4.649,74.496 0,74.604" style="fill:rgb(1,2,3);fill-rule:nonzero;"/>
            </g>
            <g transform="matrix(1,0,0,1,397.1469,358.3188)">
                <path d="M0,112.477C-16.831,110.648 -31.094,98.091 -32.097,78.797C-32.465,71.731 -31.42,64.849 -28.752,58.326C-17.56,30.959 1.473,11.955 30.616,4.642C50.808,-0.426 70.136,14.188 72.145,34.81C73.257,46.236 70.255,56.597 65.073,66.409C54.804,85.854 40.154,100.823 19.442,109.169C13.387,111.609 7.045,112.903 0,112.477M48.709,54.681C41.655,47.34 33.659,45.52 25.241,49.34C18.517,52.391 14.783,57.899 15.531,64.54C26.674,56.069 38.441,54.711 50.652,61.806C51.407,58.581 49.891,57.038 48.709,54.681" style="fill:rgb(1,2,3);fill-rule:nonzero;"/>
            </g>
            <g transform="matrix(1,0,0,1,558.8019,379.7358)">
                <path d="M0,71.811C-13.586,58.546 -22.396,43.145 -25.95,24.67C-31.101,-2.109 -8.037,-24.251 17.825,-15.824C49.337,-5.556 70.406,16.132 75.818,49.155C81.019,80.885 52.665,96.062 29.597,89.413C18.275,86.149 8.808,79.917 0,71.811M21.846,38.097C24.847,39.744 27.849,41.392 31.568,43.433C31.323,35.827 27.258,31.681 21.728,28.568C14.621,24.567 6.257,25.386 -0.122,30.755C-2.925,33.113 -5.691,35.65 -4.834,40.853C3.858,35.397 12.337,34.846 21.846,38.097" style="fill:rgb(1,2,3);fill-rule:nonzero;"/>
            </g>
            <g transform="matrix(1,0,0,1,521.6719,671.0988)">
                <path d="M0,23.366C-9.467,29.801 -20.141,28.586 -25.418,20.751C-30.048,13.877 -28.911,4.671 -22.742,-0.922C-16.662,-6.435 -6.245,-6.381 0.088,-0.805C6.045,4.441 7.105,13.519 2.525,20.475C1.894,21.433 1.033,22.241 0,23.366" style="fill:rgb(1,2,3);fill-rule:nonzero;"/>
            </g>
            <g transform="matrix(1,0,0,1,527.2959,720.7768)">
                <path d="M0,16.809C-6.359,24.341 -12.664,26.123 -21.016,23.031C-28.904,20.11 -32.515,12.94 -30.597,4.005C-28.976,-3.548 -20.919,-9.314 -13.07,-8.538C-4.663,-7.708 1.62,-1.253 1.855,6.798C1.953,10.133 2.034,13.466 0,16.809" style="fill:rgb(1,2,3);fill-rule:nonzero;"/>
            </g>
            <g transform="matrix(0.394892,-0.918728,-0.918728,-0.394892,562.920448,690.644891)">
                <path d="M-14.637,-10.978C-25.326,-10.717 -31.54,-4.985 -31.6,4.224C-31.664,13.98 -24.443,21.558 -14.637,22.029C-6.568,22.415 0.176,16.366 1.15,7.868C2.171,-1.026 -4.666,-9.368 -14.637,-10.978" style="fill:rgb(1,2,3);fill-rule:nonzero;"/>
            </g>
            <g transform="matrix(1,0,0,1,453.3999,722.0437)">
                <path d="M0,-13.519C4.191,-21.286 11.033,-24.466 18.823,-22.584C26.611,-20.703 30.859,-15.168 31.094,-6.594C31.3,0.912 26.792,7.028 19.195,9.19C13.025,10.947 7.491,8.934 3.141,4.78C-2.05,-0.177 -2.599,-6.517 0,-13.519" style="fill:rgb(1,2,3);fill-rule:nonzero;"/>
            </g>
            <g transform="matrix(-0.963207,0.268761,0.268761,0.963207,466.792847,683.28993)">
                <path d="M7.948,-30.383C-2.98,-30.336 -10.575,-23.203 -10.157,-13.762C-9.731,-4.141 -1.49,2.962 7.948,1.843C15.369,0.963 21.903,-5.815 22.375,-13.12C22.905,-21.33 17.105,-28.477 7.948,-30.383" style="fill:rgb(1,2,3);fill-rule:nonzero;"/>
            </g>
        </g>
        <g transform="matrix(0.24,0,0,0.24,-1048.019878,-2225.360587)">
            <g transform="matrix(1,0,0,1,-3890.121334,414.516006)">
                <path d="M10430.175,10160.6C10430.136,10160.578 10430.08,10160.041 10430.067,10160.001C10429.741,10159.008 10430.231,10157.05 10431.129,10155.643C10431.662,10154.81 10432.429,10154.279 10433.074,10153.733C10434.489,10152.538 10437.102,10151.547 10439.734,10150.203C10442.621,10148.729 10445.568,10146.877 10447.875,10144.959C10452.332,10141.255 10456.515,10136.297 10459.816,10131.508C10463.067,10126.79 10465.459,10121.465 10467.68,10116.223C10469.9,10110.985 10472.001,10104.866 10473.143,10100.055C10474.126,10095.913 10474.985,10091.495 10474.532,10087.358C10474.08,10083.221 10472.26,10078.273 10470.429,10075.231C10468.845,10072.6 10466.039,10070.538 10463.544,10069.106C10461.101,10067.704 10458.276,10066.582 10455.459,10066.643C10452.533,10066.706 10448.814,10067.792 10445.985,10069.486C10440.743,10072.623 10430.356,10080.728 10424.009,10085.465C10418.572,10089.523 10413.478,10094.042 10407.904,10097.909C10402.198,10101.867 10396.018,10106.267 10389.775,10109.214C10383.64,10112.111 10376.963,10114.424 10370.447,10115.593C10363.957,10116.757 10359.533,10116.349 10352.941,10115.983C10349.128,10115.771 10341.952,10115.568 10336.746,10115.544C10329.105,10115.508 10320.775,10116.192 10313.92,10116.605C10303.066,10117.259 10292.29,10118.9 10281.519,10120.391C10268.14,10122.243 10249.509,10124.729 10233.643,10127.717C10216.874,10130.875 10197.223,10135.232 10180.907,10139.338C10165.715,10143.16 10147.769,10148.6 10135.747,10152.347C10126.651,10155.183 10117.17,10158.674 10108.78,10161.822C10100.917,10164.772 10093.151,10167.977 10085.41,10171.234C10077.105,10174.729 10067.644,10178.729 10058.949,10182.793C10050.274,10186.847 10033.242,10195.616 10033.242,10195.616C10033.242,10195.616 10011.65,10207.47 10001.976,10213.238C9992.895,10218.652 9983.954,10224.308 9975.194,10230.227C9965.52,10236.764 9953.509,10245.3 9943.93,10252.458C9935.01,10259.125 9926.153,10265.901 9917.722,10273.176C9906.743,10282.65 9890.77,10296.725 9878.058,10309.303C9865.078,10322.145 9851.519,10336.893 9839.845,10350.23C9828.777,10362.875 9818.085,10375.871 9808.015,10389.324C9796.92,10404.145 9782.907,10424.526 9773.275,10439.157C9765.136,10451.522 9756.959,10465.326 9750.223,10477.115C9744.088,10487.851 9738.33,10498.819 9732.856,10509.893C9727.384,10520.964 9721.815,10533.305 9717.383,10543.558C9713.417,10552.734 9709.678,10562.015 9706.266,10571.411C9702.33,10582.253 9697.406,10596.046 9693.763,10608.61C9690.047,10621.42 9686.719,10634.935 9683.973,10648.274C9681.162,10661.927 9678.603,10677.768 9676.898,10690.526C9675.376,10701.905 9674.296,10713.355 9673.739,10724.822C9673.097,10738.043 9672.62,10754.846 9673.045,10769.852C9673.476,10785.095 9674.477,10801.001 9676.329,10816.275C9678.172,10831.462 9681.435,10848.359 9684.162,10861.496C9686.509,10872.81 9689.172,10884.089 9692.686,10895.097C9696.728,10907.761 9702.539,10924.086 9708.412,10937.476C9714.128,10950.505 9721.622,10964.341 9727.927,10975.436C9733.522,10985.281 9739.632,10994.853 9746.243,11004.046C9753.17,11013.678 9761.434,11024.089 9769.487,11033.226C9777.391,11042.195 9785.824,11050.709 9794.561,11058.869C9803.319,11067.048 9812.532,11074.917 9822.037,11082.303C9831.858,11089.936 9843.237,11097.895 9853.49,11104.663C9863.273,11111.122 9873.308,11117.217 9883.553,11122.915C9894.416,11128.957 9910.849,11136.969 9918.67,11140.916C9922.57,11142.885 9926.605,11145.327 9930.479,11146.6C9934.152,11147.808 9939.284,11151.394 9941.911,11148.558C9946.276,11143.845 9951.042,11127.371 9956.668,11118.322C9962.063,11109.644 9967.751,11099.835 9975.667,11094.264C9983.582,11088.692 10004.158,11084.893 10004.158,11084.893L10692.285,11084.185C10692.285,11084.185 10704.072,11085.576 10715.68,11089.632C10723.138,11092.237 10730.346,11096.523 10734.887,11100.327C10739.755,11104.406 10746.382,11110.317 10751.176,11118.326C10757.813,11129.415 10759.203,11137.457 10761.932,11142.536C10763.26,11145.006 10765.146,11147.771 10767.551,11148.797C10769.957,11149.824 10773.611,11149.713 10776.368,11148.695C10785.281,11145.403 10806.621,11136.584 10821.033,11129.042C10836.419,11120.992 10853.574,11110.802 10868.682,11100.393C10883.696,11090.05 10898.443,11078.582 10911.681,11066.59C10924.712,11054.785 10937.483,11040.905 10948.11,11028.442C10957.996,11016.848 10967.159,11004.423 10975.446,10991.808C10983.684,10979.266 10991.193,10966.063 10997.829,10952.749C11004.43,10939.505 11010.437,10924.857 11015.263,10911.922C11019.754,10899.883 11023.576,10887.339 11026.784,10875.137C11029.941,10863.132 11032.466,10850.885 11034.513,10838.708C11036.552,10826.573 11038.083,10814.34 11039.061,10802.074C11040.106,10788.979 11040.812,10773.645 11040.778,10760.137C11040.745,10747.085 11040.056,10734.025 11038.857,10721.028C11037.644,10707.874 11035.737,10694.416 11033.5,10681.213C11031.125,10667.192 11027.94,10651.181 11024.605,10636.899C11021.357,10622.99 11017.246,10607.981 11013.491,10595.517C11010.096,10584.252 11006.159,10573.151 11002.071,10562.119C10997.936,10550.96 10993.56,10539.574 10988.68,10528.565C10983.147,10516.085 10975.937,10500.78 10968.873,10487.234C10961.714,10473.507 10953.947,10459.584 10945.729,10446.204C10937.34,10432.545 10927.573,10418.036 10918.538,10405.277C10909.924,10393.115 10900.955,10381.189 10891.516,10369.654C10881.312,10357.182 10869.258,10343.016 10857.308,10330.444C10845.181,10317.685 10832.162,10304.948 10818.755,10293.102C10804.001,10280.065 10785.669,10264.924 10768.784,10252.225C10752.185,10239.74 10735.06,10227.917 10717.448,10216.907C10699.611,10205.757 10680.883,10194.806 10661.767,10185.326C10640.251,10174.657 10610.239,10161.478 10588.352,10152.888C10569.432,10145.463 10543.037,10137.166 10530.447,10133.789C10524.756,10132.263 10516.893,10130.988 10511.234,10132.626C10505.271,10134.353 10500.095,10139.088 10495.279,10142.895C10491.195,10146.122 10488.027,10152.278 10483.911,10155.464C10479.549,10158.841 10473.392,10162.563 10468.5,10164.408C10464.1,10166.066 10459.128,10166.489 10454.555,10166.531C10450.015,10166.573 10447.086,10166.081 10443.089,10165.114C10439.46,10164.237 10432.149,10161.711 10430.175,10160.6Z" style="fill:white;"/>
            </g>
            <path d="M6097.751,11635.241C6098.052,11638.261 6100.439,11638.627 6102.701,11639.512C6104.452,11640.196 6108.505,11639.858 6111.412,11639.915C6117.9,11640.044 6131.564,11639.938 6141.633,11640.283C6152.406,11640.653 6165.154,11641.62 6176.05,11642.134C6186.368,11642.622 6198.254,11643.144 6207.013,11643.37C6214.208,11643.556 6221.407,11643.474 6228.604,11643.491C6237.055,11643.511 6248.012,11643.491 6257.716,11643.491C6268.057,11643.491 6279.672,11643.472 6290.65,11643.491C6302.739,11643.512 6317.049,11643.53 6330.248,11643.617C6348.937,11643.741 6378.605,11644.084 6402.784,11644.232C6429.409,11644.396 6462.407,11644.498 6489.998,11644.601C6516.108,11644.698 6542.239,11644.888 6568.33,11644.848C6594.4,11644.808 6620.472,11644.698 6646.54,11644.358C6673.412,11644.009 6704.64,11643.388 6729.558,11642.75C6751.726,11642.182 6781.388,11641.106 6796.047,11640.531C6803.209,11640.249 6811.983,11640.221 6817.513,11639.295C6821.618,11638.608 6826.803,11637.26 6829.229,11634.978C6831.608,11632.74 6832.264,11628.861 6832.069,11625.602C6831.76,11620.441 6829.218,11611.145 6827.378,11604.015C6825.527,11596.841 6824.987,11587.683 6821.28,11581.245C6817.573,11574.806 6812.699,11568.148 6805.631,11564.888C6798.243,11561.48 6786.345,11561.469 6776.636,11561.433C6666.235,11561.031 6250.948,11562.355 6143.228,11562.471C6138.922,11562.476 6134.11,11561.854 6130.314,11562.132C6126.967,11562.377 6122.775,11562.861 6120.332,11564.487C6117.889,11566.113 6116.784,11569.07 6115.654,11571.889C6112.712,11579.233 6105.765,11597.75 6102.796,11608.203C6100.349,11616.818 6097.241,11630.12 6097.751,11635.241Z" style="fill:white;"/>
            <path d="M6024.332,11692.769C6019.833,11692.774 6014.171,11693.84 6011.363,11696.507C6008.554,11699.174 6007.777,11704.493 6007.483,11708.77C6006.743,11719.567 6006.181,11751.03 6006.921,11761.286C6007.169,11764.717 6009.154,11768.278 6011.927,11770.31C6014.7,11772.342 6019.541,11773.454 6023.559,11773.48C6166.86,11774.44 6722.712,11774.412 6871.622,11773.859C6886.843,11773.802 6908.275,11775.674 6915.584,11769.389C6920.689,11765 6921.151,11756.679 6921.939,11749.801C6923.142,11739.297 6922.206,11714.892 6921.7,11706.29C6921.497,11702.825 6920.162,11699.647 6917.157,11697.911C6913.796,11695.969 6909.098,11695.516 6904.072,11695.485C6754.977,11694.581 6173.117,11692.599 6024.332,11692.769Z" style="fill:white;"/>
            <g transform="matrix(4.166667,0,0,4.166667,6553.537157,12494.628862)">
                <path d="M0,-497.072C11.672,-497.276 15.095,-495.12 18.822,-485.001C19.579,-482.947 20.936,-481.989 22.675,-481.514C36.695,-477.68 50.164,-472.463 63.078,-465.796C63.491,-465.582 64.023,-465.598 64.758,-465.457C66.273,-467.574 67.672,-469.829 69.361,-471.842C80.188,-484.743 93.727,-489.672 110.629,-487.436C138.117,-483.799 154.811,-467.975 162.89,-442.482C169.147,-422.738 161.899,-401.14 145.626,-388.363C142.982,-386.287 142.014,-384.853 143.616,-381.5C151.056,-365.935 156.011,-349.5 157.566,-332.355C160.687,-297.917 154.406,-266.055 129.781,-239.825C128.432,-238.387 127.192,-236.848 125.489,-234.881C132.664,-228.709 138.714,-221.886 143.926,-214.387C156.637,-196.098 163.679,-176.071 165.159,-153.562C167.309,-120.876 146.759,-80.817 111.472,-68.914C99.797,-64.976 87.834,-63.406 75.63,-66.057C72.554,-66.725 71.345,-65.74 70.851,-62.827C69.27,-53.499 66.863,-44.249 66.105,-34.862C65.301,-24.909 60.038,-18.643 52.217,-13.809C42.542,-7.83 31.621,-5.355 20.601,-3.625C4.808,-1.146 -11.127,0.204 -27.127,-0.542C-47.448,-1.489 -67.489,-3.862 -86.509,-12.001C-97.65,-16.768 -103.935,-24.092 -104.988,-36.646C-105.925,-47.814 -107.639,-59.005 -110.259,-70.117C-111.132,-70.117 -111.841,-70.307 -112.389,-70.09C-155.896,-52.926 -200.095,-83.158 -208.752,-126.253C-215.338,-159.043 -207.345,-188.145 -187.055,-214.309C-182.125,-220.667 -176.567,-226.4 -170.508,-231.602C-167.348,-234.316 -167.752,-235.922 -170.361,-238.748C-187.062,-256.84 -196.001,-278.342 -198.935,-302.752C-202.115,-329.199 -196.639,-353.97 -186.225,-378.008C-183.198,-384.995 -183.328,-384.798 -189.126,-389.386C-203.744,-400.951 -209.697,-416.198 -207.881,-434.657C-205.797,-455.849 -195.191,-471.621 -176.769,-481.727C-163.602,-488.951 -149.109,-490.024 -134.569,-486.74C-124.242,-484.408 -116.318,-478.117 -110.475,-469.275C-109.481,-467.771 -108.511,-466.252 -107.422,-464.573C-100.479,-467.706 -93.944,-470.956 -87.186,-473.645C-67.193,-481.603 -46.414,-485.681 -24.86,-485.09C-19.945,-484.955 -16.048,-486.421 -12.796,-489.848C-9.359,-493.47 -5.176,-495.704 0,-497.072M102.092,-416.893C80.001,-440.851 53.274,-457.338 22.102,-466.767C18.084,-467.982 15.214,-468.025 12.114,-464.376C7.359,-458.782 2.627,-458.062 -3.253,-460.683C-3.45,-461.974 -2.443,-462.474 -1.595,-462.87C3.061,-465.045 5.123,-469.248 6.63,-473.701C7.652,-476.719 8.181,-480.188 5.127,-482.412C2.14,-484.587 -0.151,-481.958 -2.401,-480.409C-4.731,-478.805 -6.905,-476.974 -9.182,-475.29C-12.765,-472.638 -16.745,-471.017 -21.264,-471.299C-28.965,-471.779 -36.538,-470.728 -44.109,-469.607C-90.271,-462.769 -127.344,-440.51 -154.685,-402.852C-176.112,-373.341 -188.491,-340.681 -184.13,-303.387C-179.643,-265.011 -157.907,-239.699 -123.411,-224.279C-122.546,-223.892 -121.527,-223.853 -120.536,-223.643C-120.059,-224.371 -119.607,-224.879 -119.356,-225.473C-114.283,-237.471 -111.78,-239.14 -98.77,-239.142C-82.936,-239.145 -67.103,-239.126 -51.27,-239.177C-49.069,-239.184 -46.475,-238.505 -45.707,-241.883C-43.622,-251.062 -41.767,-260.273 -40.403,-270.357C-44.465,-268.98 -47.904,-269.947 -51.277,-270.562C-62.274,-272.567 -70.684,-278.239 -75.118,-288.854C-76.238,-291.534 -76.588,-294.49 -74.284,-296.8C-72.169,-298.921 -69.453,-298.916 -66.829,-297.795C-64.913,-296.976 -63.813,-295.229 -62.809,-293.477C-60.864,-290.078 -58.338,-287.23 -54.802,-285.453C-47.686,-281.878 -40.566,-282.258 -33.833,-286.242C-29.093,-289.046 -27.682,-293.754 -27.759,-299.116C-27.801,-302 -28.676,-303.769 -31.579,-304.691C-35.745,-306.014 -39.44,-308.364 -42.773,-311.149C-50.579,-317.669 -49.889,-329.945 -41.476,-335.583C-36.962,-338.607 -32.169,-340.579 -26.52,-340.263C-22.545,-340.041 -18.536,-340.429 -14.542,-340.541C-7.718,-340.731 -1.743,-338.575 3.163,-333.817C9.395,-327.775 9.082,-317.238 2.476,-311.607C-0.824,-308.794 -4.469,-306.423 -8.483,-304.704C-14.264,-302.229 -15.146,-300.432 -13.706,-294.378C-12.57,-289.6 -9.628,-286.457 -5.185,-284.647C5.145,-280.439 15.266,-283.954 20.895,-293.654C23.296,-297.791 27.047,-299.557 30.359,-297.665C34.23,-295.453 34.441,-291.999 32.872,-288.123C29.886,-280.745 24.519,-275.718 17.326,-272.726C11.098,-270.135 4.564,-269.328 -2.219,-270.223C-4.813,-270.565 -8.603,-271.801 -9.518,-268.015C-11.726,-258.877 -13.505,-249.619 -14.282,-240.224C-11.712,-238.795 -9.343,-239.163 -7.065,-239.16C13.435,-239.131 33.943,-238.799 54.432,-239.284C65.038,-239.536 72.655,-236.454 76.134,-225.865C76.903,-223.523 78.383,-222.812 80.767,-223.95C84.519,-225.741 88.483,-227.12 92.127,-229.098C132.697,-251.116 148.232,-292.105 141.896,-333.653C137.115,-365 123.499,-392.514 102.092,-416.893M53.551,-49.012C55.041,-57.166 56.519,-65.322 58.03,-73.472C58.363,-75.273 57.705,-76.691 56.647,-78.078C51.176,-85.243 48.698,-93.374 49.231,-102.345C49.482,-106.557 48.282,-107.983 43.783,-106.995C23.274,-102.489 3.515,-105.235 -15.575,-113.726C-28.493,-119.471 -41.414,-125.272 -55.392,-128.041C-67.682,-130.475 -79.826,-130.113 -91.712,-125.68C-95.764,-124.169 -97.24,-122.307 -95.597,-117.553C-91.959,-107.022 -91.719,-96.345 -97.144,-86.108C-97.958,-84.573 -97.982,-83.052 -97.682,-81.301C-95.384,-67.899 -92.893,-54.515 -91.15,-41.037C-90.13,-33.151 -87.69,-27.307 -79.53,-24.364C-63.937,-18.739 -47.966,-15.03 -31.449,-14.275C-17.159,-13.622 -2.827,-13.916 11.35,-16.241C22.848,-18.127 34.285,-20.332 44.619,-26.172C47.589,-27.85 50.322,-29.81 50.979,-33.428C51.868,-38.322 52.569,-43.25 53.551,-49.012M-90.963,-173.17C-35.149,-173.172 20.664,-173.173 76.478,-173.175C88.204,-173.175 88.204,-173.178 88.246,-185.119C88.269,-191.664 88.269,-191.677 81.61,-191.676C44.623,-191.669 7.636,-191.55 -29.351,-191.678C-60.999,-191.787 -92.647,-192.199 -124.296,-192.428C-130.769,-192.475 -131.097,-192.053 -131.115,-185.674C-131.122,-183.008 -130.948,-180.33 -131.151,-177.68C-131.426,-174.105 -129.835,-173.087 -126.45,-173.128C-114.956,-173.268 -103.459,-173.175 -90.963,-173.17M-34.963,-223.634C-56.276,-223.649 -77.589,-223.682 -98.902,-223.653C-101.119,-223.65 -103.934,-224.48 -105.01,-221.594C-106.846,-216.671 -109.321,-209.259 -109.276,-206.525C-109.25,-204.949 -106.242,-205.176 -104.741,-205.19C-96.414,-205.264 -88.094,-204.308 -79.808,-204.336C-34.362,-204.489 11.094,-203.238 56.532,-205.017C68.149,-205.471 67.954,-205.379 64.8,-216.675C63.38,-221.76 61.097,-223.872 55.451,-223.814C25.649,-223.506 -4.158,-223.646 -34.963,-223.634M-19.752,-159.584C-24.341,-160.504 -26.423,-158.404 -26.969,-153.955C-27.616,-148.691 -28.325,-143.412 -29.462,-138.24C-30.092,-135.376 -29.004,-134.376 -26.663,-133.484C-20.599,-131.175 -14.538,-128.843 -8.582,-126.274C5.406,-120.241 20.111,-119.226 34.989,-120.315C43.624,-120.947 52.039,-123.092 59.625,-127.651C61.372,-128.7 63.134,-129.768 63.515,-131.942C65.077,-140.854 66.565,-149.78 68.23,-159.582C38.713,-159.582 9.955,-159.582 -19.752,-159.584M-90.962,-159.65L-108.557,-159.65C-107.828,-151.288 -106.288,-143.938 -104.181,-136.224C-99.464,-137.828 -95.59,-140.109 -91.249,-141.217C-81.924,-143.598 -72.469,-143.317 -63.001,-143.157C-60.401,-143.112 -57.627,-143.099 -57.099,-146.329C-56.419,-150.497 -55.093,-154.621 -55.433,-159.649C-67.083,-159.649 -78.523,-159.649 -90.962,-159.65M-140.883,-138.729C-134.704,-131.996 -127.241,-127.504 -118.397,-125.414C-125.734,-132.587 -136.359,-134.808 -143.482,-142.423C-142.763,-141.354 -142.045,-140.286 -140.883,-138.729M85.303,-131.494C83.071,-130.094 80.436,-129.21 79.035,-126.735C86.987,-129.117 93.835,-133.016 98.346,-140.176C94.501,-136.971 90.166,-134.483 85.303,-131.494" style="fill:rgb(1,2,3);fill-rule:nonzero;"/>
            </g>
            <g transform="matrix(4.166667,0,0,4.166667,6036.343407,10765.333029)">
                <path d="M0,112.476C-16.831,110.648 -31.094,98.091 -32.097,78.796C-32.465,71.73 -31.419,64.848 -28.752,58.326C-17.56,30.959 1.473,11.955 30.616,4.641C50.809,-0.426 70.137,14.187 72.146,34.809C73.258,46.236 70.256,56.596 65.074,66.408C54.805,85.853 40.155,100.823 19.443,109.169C13.388,111.608 7.045,112.902 0,112.476M48.71,54.681C41.656,47.34 33.66,45.52 25.242,49.339C18.518,52.39 14.784,57.898 15.531,64.54C26.673,56.068 38.441,54.71 50.652,61.806C51.408,58.581 49.892,57.037 48.71,54.681" style="fill:rgb(1,2,3);fill-rule:nonzero;"/>
            </g>
            <g transform="matrix(4.166667,0,0,4.166667,6709.907991,10854.574695)">
                <path d="M0,71.809C-13.586,58.544 -22.396,43.144 -25.95,24.668C-31.101,-2.111 -8.037,-24.252 17.825,-15.825C49.337,-5.557 70.406,16.131 75.818,49.153C81.019,80.883 52.665,96.061 29.597,89.411C18.274,86.148 8.808,79.915 0,71.809M21.846,38.096C24.847,39.743 27.848,41.39 31.568,43.431C31.323,35.826 27.258,31.68 21.727,28.566C14.621,24.565 6.257,25.385 -0.123,30.753C-2.925,33.112 -5.691,35.649 -4.834,40.852C3.858,35.396 12.337,34.844 21.846,38.096" style="fill:rgb(1,2,3);fill-rule:nonzero;"/>
            </g>
            <g transform="matrix(4.166667,0,0,4.166667,6555.199657,12068.583445)">
                <path d="M0,23.365C-9.467,29.8 -20.141,28.585 -25.418,20.75C-30.048,13.876 -28.911,4.671 -22.742,-0.923C-16.663,-6.435 -6.246,-6.382 0.088,-0.805C6.045,4.44 7.105,13.518 2.525,20.474C1.893,21.433 1.033,22.241 0,23.365" style="fill:rgb(1,2,3);fill-rule:nonzero;"/>
            </g>
            <g transform="matrix(4.166667,0,0,4.166667,6578.632991,12275.573029)">
                <path d="M0,16.809C-6.359,24.341 -12.664,26.123 -21.016,23.031C-28.904,20.11 -32.515,12.94 -30.598,4.005C-28.976,-3.548 -20.919,-9.314 -13.07,-8.539C-4.663,-7.708 1.62,-1.253 1.855,6.798C1.953,10.133 2.033,13.465 0,16.809" style="fill:rgb(1,2,3);fill-rule:nonzero;"/>
            </g>
            <g transform="matrix(1.645382,-3.828032,-3.828032,-1.645382,6727.064781,12150.024264)">
                <path d="M-14.637,-10.978C-25.325,-10.717 -31.54,-4.986 -31.6,4.225C-31.663,13.979 -24.443,21.557 -14.637,22.028C-6.568,22.414 0.176,16.365 1.151,7.868C2.171,-1.026 -4.666,-9.369 -14.637,-10.978" style="fill:rgb(1,2,3);fill-rule:nonzero;"/>
            </g>
            <g transform="matrix(4.166667,0,0,4.166667,6270.732991,12280.848445)">
                <path d="M0,-13.518C4.191,-21.285 11.033,-24.465 18.823,-22.583C26.611,-20.703 30.859,-15.167 31.094,-6.594C31.299,0.913 26.791,7.029 19.195,9.191C13.025,10.947 7.491,8.935 3.141,4.781C-2.05,-0.176 -2.599,-6.516 0,-13.518" style="fill:rgb(1,2,3);fill-rule:nonzero;"/>
            </g>
            <g transform="matrix(-4.013372,1.119803,1.119803,4.013372,6326.537064,12119.379668)">
                <path d="M7.948,-30.384C-2.979,-30.337 -10.575,-23.203 -10.157,-13.762C-9.731,-4.141 -1.49,2.961 7.948,1.843C15.369,0.962 21.903,-5.816 22.375,-13.121C22.905,-21.33 17.105,-28.478 7.948,-30.384" style="fill:rgb(1,2,3);fill-rule:nonzero;"/>
            </g>
        </g>
    </g>
</svg>
