<svg width="55" height="45" viewBox="0 0 55 45" fill="none" xmlns="http://www.w3.org/2000/svg">
<path d="M26.7178 1.5L26.3027 3.33105L22.0547 22.0859C24.2609 24.2636 25.6201 27.2974 25.6201 30.6621C25.6201 37.2825 20.1288 42.626 13.5596 42.626C6.99049 42.6257 1.5 37.2824 1.5 30.6621C1.50001 28.6466 2.02369 26.6204 2.96875 24.9541L12.417 2.41992L12.8027 1.5H26.7178ZM52.8779 1.5L52.4629 3.33105L48.2148 22.0859C50.421 24.2636 51.7803 27.2974 51.7803 30.6621C51.7803 37.2825 46.289 42.626 39.7197 42.626C33.1506 42.6258 27.6602 37.2824 27.6602 30.6621C27.6602 28.6455 28.1839 26.6179 29.1299 24.9512L38.6992 2.41406L39.0869 1.5H52.8779Z" fill="#FFC16B" stroke="#F7EDE3" stroke-width="3"/>
</svg>
